<svg xmlns="http://www.w3.org/2000/svg" width="77" height="78" viewBox="0 0 77 78" fill="none">
  <rect y="0.650391" width="76.7" height="76.7" rx="12" fill="#D8D1C8"/>
  <path d="M52.6462 43.4803C52.3861 43.1262 52.1095 42.797 51.8218 42.4899C51.7581 42.3945 51.6696 42.2949 51.5507 42.1884C51.458 42.1054 51.3639 42.0252 51.2712 41.9449C50.5146 41.2505 49.6777 40.6945 48.7689 40.2698C47.4341 39.6031 45.9858 39.2116 44.4172 39.148C42.4557 39.0691 40.4929 39.0843 38.5286 39.1023C36.5644 39.0843 34.6015 39.0691 32.6401 39.148C31.0715 39.2102 29.6232 39.6031 28.2883 40.2698C27.3795 40.6945 26.5427 41.2505 25.786 41.9449C25.6919 42.0252 25.5979 42.1054 25.5066 42.1884C25.389 42.2949 25.2991 42.3931 25.2355 42.4899C24.9478 42.797 24.6711 43.1262 24.411 43.4803C22.4786 46.1113 21.8119 49.1144 22.0443 52.3305C22.3348 56.3613 24.6393 58.6893 28.6798 58.9203L33.4742 58.9508L34.733 58.9591L35.7303 58.966C35.8492 58.9895 35.9917 58.9992 36.1646 58.9992L38.5286 58.984L40.8926 58.9992C41.0655 58.9992 41.208 58.9895 41.327 58.966L42.3243 58.9591L43.5831 58.9508L48.3775 58.9203C52.418 58.6893 54.7225 56.3613 55.013 52.3305C55.2454 49.1144 54.5786 46.1113 52.6462 43.4803Z" fill="#5B5B5B"/>
  <path d="M38.4958 34.685C38.5068 34.685 38.5179 34.6822 38.529 34.6822C38.54 34.6822 38.5511 34.6822 38.5622 34.6822C43.4617 34.6726 47.4386 30.6998 47.4192 25.8349C47.3998 20.9866 43.5046 17.0733 38.6797 17.0041C38.6424 17.0041 38.6051 17.0014 38.5663 17C38.5539 17 38.5414 17 38.529 17C38.5165 17 38.5041 17 38.4916 17C38.4543 17 38.4169 17.0028 38.3782 17.0041C33.5534 17.0747 29.6567 20.9879 29.6387 25.8349C29.6194 30.6998 33.5963 34.6726 38.4958 34.6836V34.685Z" fill="#5B5B5B"/>
</svg>
