<svg xmlns="http://www.w3.org/2000/svg" width="77" height="78" viewBox="0 0 77 78" fill="none">
  <rect y="0.650391" width="76.7" height="76.7" rx="12" fill="#D8D1C8"/>
  <path d="M59.4306 59.7874V59.7675C59.4192 53.6949 59.4235 49.4483 59.4235 43.3743C59.4235 36.4532 59.4192 29.5307 59.4306 22.6082C59.4306 21.6322 59.041 20.9622 58.126 20.5869C54.562 19.1236 51.0009 17.6504 47.4426 16.1716C46.9001 15.9464 46.3859 15.9407 45.8434 16.1673C42.2667 17.6533 38.69 19.1321 35.1091 20.6095C34.2903 20.9481 33.8626 21.5444 33.8626 22.4368C33.8626 26.1934 33.8654 29.9486 33.8555 33.7052C33.8555 33.9885 33.9447 34.1188 34.2096 34.225C35.7748 34.8582 37.3302 35.514 38.8897 36.1628C39.098 36.252 39.2595 36.3314 39.4082 36.0325C39.6037 35.6401 39.9932 35.4701 40.4182 35.463C41.4125 35.4446 42.4069 35.4319 43.4013 35.4673C44.0968 35.4914 44.577 35.9857 44.5926 36.677C44.6195 37.8173 44.6195 38.9604 44.5926 40.1007C44.577 40.7622 44.1294 41.2679 43.5076 41.2764C43.033 41.2835 43.043 41.5087 43.043 41.8515C43.05 48.3802 43.0515 53.083 43.0401 59.6117C43.0401 60.4205 43.0401 61.2265 43.0387 62.0339C43.0387 62.4065 43.2413 62.7634 43.5826 62.915C43.6889 62.9618 43.8065 62.9915 43.9283 62.9972H43.9821C48.8081 62.9788 53.637 62.9788 58.4631 62.9972H58.4758C58.4758 62.9972 58.4801 62.9972 58.4829 63C58.4942 63 58.5056 63 58.5155 62.9972H58.5282C59.0283 62.9646 59.4277 62.5481 59.4334 62.0382V62.0269C59.4306 61.2804 59.4291 60.5339 59.4291 59.7874H59.4306ZM44.5983 29.0533C44.5827 29.8353 44.0841 30.3225 43.305 30.3353C42.3659 30.3509 41.4267 30.3509 40.4876 30.3353C39.7085 30.3197 39.2184 29.8239 39.2014 29.0491C39.19 28.4981 39.1985 27.9456 39.1985 27.3932C39.1985 26.8407 39.1872 26.2883 39.2028 25.7373C39.2226 24.9936 39.7127 24.5021 40.4635 24.4879C41.4196 24.4723 42.3786 24.4723 43.3362 24.4879C44.0827 24.5007 44.5813 24.9865 44.5969 25.7415C44.6209 26.845 44.6195 27.9499 44.5997 29.0548L44.5983 29.0533ZM48.692 36.7464C48.7076 35.9843 49.1594 35.4857 49.9173 35.4616C50.8918 35.4305 51.8678 35.4333 52.8424 35.4616C53.5733 35.4843 54.0577 35.9532 54.0776 36.6869C54.1101 37.8258 54.113 38.9675 54.0733 40.1078C54.0492 40.8472 53.5549 41.2863 52.8197 41.2977C51.8636 41.3132 50.906 41.3132 49.9499 41.2977C49.1807 41.2863 48.7147 40.8189 48.6948 40.0568C48.6792 39.5058 48.692 38.9533 48.692 38.4009C48.6892 37.8499 48.6807 37.2974 48.692 36.7464ZM48.692 25.76C48.7104 24.9738 49.1864 24.4978 49.981 24.4865C50.9202 24.4738 51.8593 24.4738 52.7956 24.4865C53.5535 24.4978 54.0563 24.9554 54.0776 25.716C54.1101 26.8393 54.1101 27.9612 54.0804 29.0845C54.0563 29.8678 53.5492 30.3254 52.756 30.3353C51.8366 30.348 50.9159 30.3509 49.9938 30.3353C49.1807 30.3225 48.7047 29.8353 48.692 29.0179C48.6807 28.4839 48.6892 27.9499 48.6892 27.4173C48.6892 26.8847 48.6807 26.3124 48.692 25.7614V25.76Z" fill="#5B5B5B"/>
  <path d="M41.2001 59.7678C41.1888 52.7716 41.1888 47.6014 41.2001 40.6066C41.2029 39.6009 40.7921 38.9295 39.8643 38.547C36.3358 37.0965 32.8058 35.6432 29.2858 34.1771C28.6654 33.9179 28.0903 33.9419 27.4769 34.1998C24.0065 35.6474 20.5304 37.0781 17.0557 38.5187C15.9522 38.9748 15.6363 39.4578 15.6363 40.6718C15.6363 47.6566 15.6406 52.8127 15.6278 59.7975C15.6278 60.5412 15.6278 61.2834 15.625 62.0271V62.0384C15.6321 62.554 16.0386 62.9733 16.5486 62.9974H16.5882C16.5882 62.9974 16.5925 63.0002 16.5953 63.0002H16.5981C16.5981 63.0002 16.601 62.9974 16.6024 62.9974C20.5332 62.9776 24.4626 62.9861 28.3948 62.9861C32.3271 62.9861 36.3273 62.9818 40.2964 62.9946H40.3403C40.8275 62.9407 41.2058 62.5271 41.2058 62.0271C41.2029 61.2735 41.2015 60.5213 41.2015 59.7678H41.2001ZM26.3706 56.1401C26.3508 56.9574 25.8706 57.4532 25.066 57.4645C24.1269 57.4801 23.1877 57.4801 22.2486 57.4645C21.4709 57.4518 20.9794 56.9546 20.9681 56.1755C20.9553 55.0876 20.9553 54.0026 20.9681 52.9161C20.9794 52.1144 21.4794 51.6257 22.2939 51.6157C23.2147 51.6044 24.1368 51.603 25.0575 51.6157C25.8621 51.6271 26.348 52.1229 26.3692 52.9359C26.382 53.47 26.3721 54.004 26.3721 54.5366C26.3721 55.0692 26.3834 55.6061 26.3692 56.1401H26.3706ZM26.3636 47.0772C26.3508 47.7954 25.872 48.2869 25.1383 48.3124C24.1637 48.345 23.1877 48.345 22.2132 48.3153C21.4341 48.2884 20.9822 47.7798 20.9667 46.9866C20.9582 46.4526 20.9667 45.9185 20.9667 45.3859C20.9667 44.8533 20.9582 44.3179 20.9695 43.7853C20.9822 42.9864 21.4384 42.4948 22.2231 42.4793C23.1977 42.4594 24.1736 42.4566 25.1482 42.4821C25.872 42.5005 26.3508 42.9821 26.3664 43.7116C26.3891 44.8349 26.3891 45.9568 26.3636 47.0801V47.0772ZM30.4615 43.7754C30.4771 42.9651 30.9148 42.4948 31.7166 42.4778C32.6727 42.4552 33.6303 42.458 34.5864 42.475C35.3485 42.4906 35.8315 42.9538 35.8513 43.7173C35.8797 44.8222 35.8783 45.927 35.8542 47.0305C35.8358 47.8195 35.3542 48.2969 34.5609 48.3195C33.6246 48.3436 32.6826 48.3436 31.7463 48.3167C30.929 48.294 30.4771 47.7982 30.4601 46.9767V45.376C30.4601 44.842 30.453 44.308 30.4629 43.7754H30.4615ZM35.8485 56.2378C35.8259 56.9928 35.3187 57.4532 34.5623 57.4645C33.6232 57.4801 32.684 57.4801 31.7449 57.4645C30.9587 57.4532 30.4785 56.9687 30.4601 56.1868C30.4488 55.633 30.4573 55.0819 30.4573 54.5309C30.4601 53.9771 30.4488 53.426 30.4615 52.875C30.4799 52.1271 30.9616 51.6327 31.7123 51.62C32.6684 51.6016 33.6274 51.6016 34.585 51.62C35.3088 51.6313 35.8202 52.0917 35.8428 52.8155C35.8811 53.9558 35.8811 55.0989 35.8471 56.2392L35.8485 56.2378Z" fill="#5B5B5B"/>
</svg>
