<svg xmlns="http://www.w3.org/2000/svg" width="77" height="78" viewBox="0 0 77 78" fill="none">
  <rect y="0.650391" width="76.7" height="76.7" rx="12" fill="#D8D1C8"/>
  <path d="M35.9626 48.2146C35.9626 50.8522 35.964 53.4899 35.9626 56.1276C35.9598 59.0497 34.015 60.9917 31.0902 60.9931C27.6857 60.9945 24.2799 60.9945 20.8755 60.9931C17.9562 60.9917 16.003 59.0427 16.003 56.1276C16.0016 50.8522 16.0016 45.5769 16.003 40.3015C16.003 37.4157 17.9603 35.4653 20.8518 35.4639C24.2729 35.4625 27.6941 35.4625 31.1139 35.4639C34.0109 35.4653 35.9598 37.4101 35.9626 40.3015C35.9654 42.9392 35.9626 45.5769 35.9626 48.2146Z" fill="#5B5B5B"/>
  <path d="M58.9963 30.8146C58.9963 33.4356 58.9977 36.0579 58.9963 38.6789C58.9935 41.5772 57.0487 43.529 54.1615 43.5318C50.725 43.5346 47.2885 43.5346 43.8506 43.5318C40.9982 43.529 39.0367 41.5661 39.0353 38.7081C39.0325 33.4174 39.0325 28.1254 39.0353 22.8347C39.0367 19.9739 40.9968 18.0054 43.8464 18.004C47.2829 18.0013 50.7194 18.0013 54.1573 18.004C57.0431 18.0068 58.9935 19.9614 58.9963 22.8556C58.9991 25.5086 58.9963 28.163 58.9963 30.816V30.8146Z" fill="#5B5B5B"/>
  <path d="M49.0207 60.9952C47.278 60.9952 45.5368 60.9994 43.7941 60.9952C41.0296 60.9869 39.0457 59.0114 39.036 56.2566C39.029 54.4345 39.0304 52.6124 39.036 50.7903C39.0457 48.0508 40.9989 46.0559 43.7356 46.0391C47.2515 46.0182 50.7689 46.0182 54.2849 46.0391C57.0243 46.0545 58.9831 48.0439 58.9942 50.7805C59.0012 52.618 59.004 54.4568 58.9942 56.2943C58.9789 58.9975 56.9964 60.9799 54.296 60.9952C52.538 61.005 50.78 60.9966 49.0221 60.9966L49.0207 60.9952Z" fill="#5B5B5B"/>
  <path d="M26.0047 18.0019C27.7307 18.0019 29.4566 17.9977 31.1839 18.0019C33.9819 18.0088 35.9546 19.9759 35.963 22.767C35.9685 24.5724 35.9685 26.3791 35.963 28.1859C35.9546 30.956 34 32.9468 31.2369 32.9608C27.7362 32.9789 24.2356 32.9789 20.7364 32.9608C17.9732 32.9468 16.0131 30.956 16.0047 28.1915C15.9991 26.3694 15.9977 24.5473 16.0047 22.7251C16.0159 19.9968 18.0011 18.013 20.7308 18.0033C22.4888 17.9963 24.2468 18.0033 26.0047 18.0033V18.0019Z" fill="#5B5B5B"/>
</svg>
