<svg xmlns="http://www.w3.org/2000/svg" width="77" height="77" viewBox="0 0 77 77" fill="none">
  <rect width="76.7" height="76.7" rx="12" fill="#D8D1C8"/>
  <path d="M51.2417 43.7472C51.7162 43.2699 51.7148 42.9477 51.2143 42.4979C49.2011 40.6877 46.8506 39.5933 44.1422 39.485C41.6313 39.3849 39.1148 39.4384 36.6011 39.4548C35.0117 39.4658 33.4113 39.4288 31.837 39.6002C28.7679 39.9334 26.1678 41.2444 24.3083 43.7787C22.3925 46.387 21.7315 49.3643 21.9619 52.5527C22.2499 56.5488 24.5345 58.8568 28.5403 59.0858L33.2934 59.116L34.5413 59.1242L40.648 59.164C41.4214 59.164 41.6093 58.9734 41.6121 58.1889C41.6148 57.1618 41.6285 56.1346 41.6079 55.1089C41.5846 53.9638 41.9892 53.034 42.8051 52.2222C45.6329 49.4123 48.4332 46.5763 51.2417 43.7472Z" fill="#5B5B5B"/>
  <path d="M38.3372 35.0589C43.1945 35.048 47.1372 31.1094 47.118 26.2864C47.0988 21.4181 43.1369 17.4973 38.2672 17.5275C33.4757 17.5563 29.5756 21.525 29.5879 26.3577C29.5989 31.1273 33.5635 35.0699 38.3372 35.0576V35.0589Z" fill="#5B5B5B"/>
  <path d="M59.8282 50.8102C58.7599 51.8881 57.6518 53.0113 56.5355 54.1275C54.6472 56.0145 52.7588 57.9015 50.8526 59.7707C50.6003 60.0189 50.1039 60.2273 49.7501 60.2328C48.3238 60.2534 46.8949 60.2452 45.4262 60.2438C45.1396 60.2438 44.9009 60.0148 44.8996 59.7282V59.7227C44.8982 58.2169 44.89 56.7112 44.9078 55.2054C44.9105 54.9901 44.986 54.7172 45.13 54.5719C48.1922 51.4753 51.2695 48.3912 54.3441 45.3056C54.3455 45.3029 54.3468 45.3015 54.3482 45.3001C54.3688 45.2809 54.388 45.2603 54.4086 45.2411C54.4099 45.2398 54.4099 45.2384 54.4113 45.2384C54.4908 45.1726 54.5937 45.1328 54.7034 45.1328C54.8282 45.1328 54.942 45.1836 55.0257 45.2645L55.0325 45.2713C56.6288 46.8689 58.2196 48.4611 59.8254 50.067C60.0298 50.2727 60.0311 50.6032 59.8282 50.8102Z" fill="#5B5B5B"/>
  <path d="M64.0346 43.7034C63.1912 42.8093 62.3204 41.9385 61.4249 41.0951C60.635 40.3518 59.4282 40.3148 58.6163 41.0348C57.8278 41.7342 57.112 42.5172 56.3906 43.2358C58.2433 45.0871 60.0631 46.9083 61.909 48.7528C61.9844 48.6828 62.0735 48.6033 62.1586 48.5196C62.777 47.9066 63.4106 47.306 64.0099 46.6738C64.8162 45.8208 64.8382 44.5523 64.0373 43.7021H64.0346V43.7034Z" fill="#5B5B5B"/>
</svg>
