<svg width="130" height="36" viewBox="0 0 130 36" fill="none" xmlns="http://www.w3.org/2000/svg">
<g id="Amsterdam Time Machine">
<path id="Vector" d="M124.792 35.0561C123.171 35.0561 121.932 34.5709 121.076 33.6005C120.231 32.6301 119.809 31.3115 119.809 29.6447C119.809 28.5259 119.997 27.5669 120.374 26.7678C120.762 25.9686 121.321 25.3521 122.052 24.9183C122.794 24.4845 123.696 24.2676 124.758 24.2676C126.287 24.2676 127.458 24.7299 128.268 25.6547C129.09 26.5794 129.501 27.938 129.501 29.7303V30.3126H122.514C122.571 31.1802 122.794 31.8652 123.182 32.3675C123.582 32.8584 124.118 33.1039 124.792 33.1039C125.328 33.1039 125.757 32.9441 126.076 32.6244C126.407 32.3047 126.624 31.9337 126.727 31.5113H129.364C129.261 32.1392 129.033 32.7214 128.679 33.258C128.325 33.7946 127.829 34.2284 127.189 34.5595C126.55 34.8906 125.751 35.0561 124.792 35.0561ZM122.514 28.5659H126.795C126.75 27.7895 126.556 27.1902 126.213 26.7678C125.871 26.3339 125.38 26.117 124.74 26.117C124.113 26.117 123.605 26.3225 123.216 26.7335C122.84 27.1331 122.606 27.7439 122.514 28.5659Z" fill="#573AFF"/>
<path id="Vector_2" d="M108.852 34.7992V24.5244H111.42V26.0657H111.831C112.037 25.5519 112.351 25.1238 112.773 24.7813C113.207 24.4388 113.841 24.2676 114.674 24.2676C115.816 24.2676 116.672 24.6272 117.243 25.3464C117.813 26.0657 118.099 27.0418 118.099 28.2747V34.7992H115.325V28.7371C115.325 28.0293 115.199 27.487 114.948 27.1103C114.697 26.7221 114.286 26.528 113.715 26.528C113.053 26.528 112.539 26.7906 112.174 27.3158C111.808 27.8295 111.626 28.4745 111.626 29.2508V34.7992H108.852Z" fill="#573AFF"/>
<path id="Vector_3" d="M103.536 34.7989V24.5241H106.311V34.7989H103.536ZM104.923 23.3426C104.433 23.3426 104.062 23.217 103.81 22.9658C103.559 22.7032 103.434 22.3664 103.434 21.9555C103.434 21.5445 103.559 21.2134 103.81 20.9622C104.062 20.6996 104.433 20.5684 104.923 20.5684C105.414 20.5684 105.785 20.6996 106.037 20.9622C106.288 21.2134 106.413 21.5445 106.413 21.9555C106.413 22.3664 106.288 22.7032 106.037 22.9658C105.785 23.217 105.414 23.3426 104.923 23.3426Z" fill="#573AFF"/>
<path id="Vector_4" d="M91.8945 34.7993V21.0996H94.6687V25.7575H95.0797C95.308 25.3237 95.622 24.9698 96.0216 24.6958C96.4326 24.4104 96.9977 24.2677 97.7169 24.2677C98.8585 24.2677 99.7148 24.6273 100.286 25.3465C100.856 26.0658 101.142 27.0419 101.142 28.2748V34.7993H98.3676V28.7372C98.3676 28.0294 98.2421 27.4871 97.9909 27.1104C97.7397 26.7222 97.3287 26.5281 96.7579 26.5281C96.0958 26.5281 95.582 26.7907 95.2167 27.3158C94.8514 27.8296 94.6687 28.4746 94.6687 29.2509V34.7993H91.8945Z" fill="#573AFF"/>
<path id="Vector_5" d="M85.4743 35.0561C83.8874 35.0561 82.6773 34.5709 81.8439 33.6005C81.0105 32.6301 80.5938 31.3172 80.5938 29.6618C80.5938 27.9151 81.0333 26.5794 81.9124 25.6547C82.8028 24.7299 84.0016 24.2676 85.5085 24.2676C86.8671 24.2676 87.9345 24.6272 88.7108 25.3464C89.4871 26.0657 89.9495 27.0475 90.0979 28.2919H87.358C87.2781 27.6183 87.0783 27.1046 86.7586 26.7506C86.439 26.3967 86.028 26.2198 85.5256 26.2198C84.8635 26.2198 84.3555 26.5166 84.0016 27.1103C83.6476 27.7039 83.4707 28.5544 83.4707 29.6618C83.4707 30.7692 83.6419 31.6198 83.9844 32.2134C84.3383 32.8071 84.8464 33.1039 85.5085 33.1039C86.0223 33.1039 86.439 32.9269 86.7586 32.573C87.0783 32.2077 87.2781 31.694 87.358 31.0318H90.0979C89.9381 32.2534 89.4643 33.2295 88.6766 33.9601C87.9003 34.6908 86.8328 35.0561 85.4743 35.0561Z" fill="#573AFF"/>
<path id="Vector_6" d="M72.9518 35.0041C71.9929 35.0041 71.2051 34.7758 70.5886 34.3191C69.9722 33.8511 69.5155 33.2118 69.2187 32.4012C68.9219 31.5906 68.7734 30.6716 68.7734 29.6441C68.7734 28.5824 68.9219 27.652 69.2187 26.8528C69.5269 26.0537 69.9893 25.4315 70.6058 24.9862C71.2223 24.541 71.9986 24.3184 72.9347 24.3184C73.654 24.3184 74.2419 24.4611 74.6986 24.7465C75.1666 25.0205 75.5205 25.3915 75.7603 25.8596H76.1713V24.5239H78.74V34.7986H76.1713V33.4629H75.7603C75.5205 33.8967 75.1723 34.2621 74.7157 34.5589C74.259 34.8557 73.6711 35.0041 72.9518 35.0041ZM73.6711 33.0519C74.3675 33.0519 74.9212 32.7494 75.3322 32.1443C75.7546 31.5278 75.9658 30.7001 75.9658 29.6612C75.9658 28.6109 75.7546 27.7832 75.3322 27.1782C74.9212 26.5731 74.3675 26.2706 73.6711 26.2706C73.0432 26.2706 72.5466 26.556 72.1812 27.1268C71.8273 27.6862 71.6504 28.531 71.6504 29.6612C71.6504 30.7915 71.8273 31.642 72.1812 32.2128C72.5466 32.7722 73.0432 33.0519 73.6711 33.0519Z" fill="#573AFF"/>
<path id="Vector_7" d="M51.1719 34.7986V21.4414H56.2408L58.7238 32.5382H59.3403L61.8234 21.4414H66.8923V34.7986H64.2208V23.8046H63.7756L61.3439 34.7986H56.5833L54.1516 23.8046H53.7063V34.7986H51.1719Z" fill="#573AFF"/>
<path id="Vector_8" d="M40.5262 35.0561C38.9051 35.0561 37.6664 34.5709 36.8102 33.6005C35.9654 32.6301 35.543 31.3115 35.543 29.6447C35.543 28.5259 35.7313 27.5669 36.1081 26.7678C36.4962 25.9686 37.0556 25.3521 37.7863 24.9183C38.5284 24.4845 39.4303 24.2676 40.492 24.2676C42.0218 24.2676 43.192 24.7299 44.0025 25.6547C44.8245 26.5794 45.2355 27.938 45.2355 29.7303V30.3126H38.2487C38.3057 31.1802 38.5284 31.8652 38.9165 32.3675C39.3161 32.8584 39.8527 33.1039 40.5262 33.1039C41.0628 33.1039 41.4909 32.9441 41.8106 32.6244C42.1417 32.3047 42.3586 31.9337 42.4613 31.5113H45.0985C44.9958 32.1392 44.7674 32.7214 44.4135 33.258C44.0596 33.7946 43.563 34.2284 42.9237 34.5595C42.2844 34.8906 41.4852 35.0561 40.5262 35.0561ZM38.2487 28.5659H42.5298C42.4842 27.7895 42.2901 27.1902 41.9476 26.7678C41.6051 26.3339 41.1142 26.117 40.4749 26.117C39.847 26.117 39.3389 26.3225 38.9508 26.7335C38.574 27.1331 38.34 27.7439 38.2487 28.5659Z" fill="#573AFF"/>
<path id="Vector_9" d="M18.7695 34.7992V24.5244H21.3382V26.0657H21.7492C21.9433 25.5748 22.2515 25.1524 22.6739 24.7984C23.0964 24.4445 23.7071 24.2676 24.5063 24.2676C25.2141 24.2676 25.802 24.4274 26.2701 24.7471C26.7496 25.0553 27.1149 25.4948 27.3661 26.0657H27.7771C27.9826 25.5519 28.3022 25.1238 28.7361 24.7813C29.1699 24.4388 29.7692 24.2676 30.5341 24.2676C31.6415 24.2676 32.4692 24.6272 33.0172 25.3464C33.5652 26.0657 33.8392 27.0418 33.8392 28.2747V34.7992H31.065V28.7371C31.065 28.0407 30.9508 27.4984 30.7225 27.1103C30.4942 26.7221 30.1232 26.528 29.6094 26.528C28.9815 26.528 28.502 26.7906 28.171 27.3158C27.8513 27.8409 27.6915 28.4859 27.6915 29.2508V34.7992H24.9173V28.7371C24.9173 28.0407 24.8031 27.4984 24.5748 27.1103C24.3465 26.7221 23.9754 26.528 23.4617 26.528C22.8452 26.528 22.3714 26.7906 22.0403 27.3158C21.7093 27.8409 21.5437 28.4859 21.5437 29.2508V34.7992H18.7695Z" fill="#573AFF"/>
<path id="Vector_10" d="M13.4504 34.7989V24.5241H16.2246V34.7989H13.4504ZM14.8375 23.3426C14.3466 23.3426 13.9756 23.217 13.7244 22.9658C13.4732 22.7032 13.3477 22.3664 13.3477 21.9555C13.3477 21.5445 13.4732 21.2134 13.7244 20.9622C13.9756 20.6996 14.3466 20.5684 14.8375 20.5684C15.3284 20.5684 15.6994 20.6996 15.9506 20.9622C16.2018 21.2134 16.3273 21.5445 16.3273 21.9555C16.3273 22.3664 16.2018 22.7032 15.9506 22.9658C15.6994 23.217 15.3284 23.3426 14.8375 23.3426Z" fill="#573AFF"/>
<path id="Vector_11" d="M4.83079 34.7986V23.7019H0.875V21.4414H11.6635V23.7019H7.70773V34.7986H4.83079Z" fill="#573AFF"/>
<path id="Vector_12" d="M90.4922 13.6996V3.42484H93.0609V4.96605H93.4719C93.666 4.47515 93.9742 4.05274 94.3966 3.69883C94.819 3.34492 95.4298 3.16797 96.2289 3.16797C96.9368 3.16797 97.5247 3.3278 97.9928 3.64746C98.4723 3.9557 98.8376 4.39523 99.0887 4.96605H99.4997C99.7052 4.45232 100.025 4.0242 100.459 3.68171C100.893 3.33921 101.492 3.16797 102.257 3.16797C103.364 3.16797 104.192 3.52759 104.74 4.24682C105.288 4.96605 105.562 5.94216 105.562 7.17513V13.6996H102.788V7.6375C102.788 6.9411 102.674 6.39882 102.445 6.01066C102.217 5.6225 101.846 5.42842 101.332 5.42842C100.704 5.42842 100.225 5.691 99.8936 6.21615C99.574 6.74131 99.4141 7.38634 99.4141 8.15124V13.6996H96.6399V7.6375C96.6399 6.9411 96.5258 6.39882 96.2974 6.01066C96.0691 5.6225 95.6981 5.42842 95.1843 5.42842C94.5679 5.42842 94.0941 5.691 93.763 6.21615C93.4319 6.74131 93.2664 7.38634 93.2664 8.15124V13.6996H90.4922Z" fill="#573AFF"/>
<path id="Vector_13" d="M82.1628 13.9045C81.2038 13.9045 80.4161 13.6762 79.7996 13.2195C79.1831 12.7515 78.7264 12.1121 78.4296 11.3016C78.1328 10.491 77.9844 9.57199 77.9844 8.54451C77.9844 7.48278 78.1328 6.55234 78.4296 5.75319C78.7379 4.95405 79.2002 4.33185 79.8167 3.88661C80.4332 3.44137 81.2095 3.21875 82.1457 3.21875C82.8649 3.21875 83.4528 3.36146 83.9095 3.64687C84.3776 3.92086 84.7315 4.29189 84.9712 4.75997H85.3822V3.42425H87.9509V13.699H85.3822V12.3633H84.9712C84.7315 12.7971 84.3833 13.1625 83.9266 13.4593C83.47 13.7561 82.882 13.9045 82.1628 13.9045ZM82.882 11.9523C83.5784 11.9523 84.1321 11.6498 84.5431 11.0447C84.9655 10.4282 85.1767 9.60053 85.1767 8.56163C85.1767 7.51132 84.9655 6.68363 84.5431 6.07856C84.1321 5.47349 83.5784 5.17096 82.882 5.17096C82.2541 5.17096 81.7575 5.45637 81.3922 6.02719C81.0383 6.58659 80.8613 7.43141 80.8613 8.56163C80.8613 9.69186 81.0383 10.5424 81.3922 11.1132C81.7575 11.6726 82.2541 11.9523 82.882 11.9523Z" fill="#573AFF"/>
<path id="Vector_14" d="M70.274 13.9052C69.3378 13.9052 68.5672 13.6769 67.9622 13.2202C67.3571 12.7521 66.9061 12.1128 66.6093 11.3023C66.3125 10.4917 66.1641 9.57267 66.1641 8.54519C66.1641 7.48346 66.3125 6.55302 66.6093 5.75387C66.9175 4.95473 67.3742 4.33253 67.9793 3.88729C68.5958 3.44205 69.3607 3.21943 70.274 3.21943C70.9475 3.21943 71.4955 3.3393 71.9179 3.57905C72.3518 3.81879 72.6943 4.14416 72.9454 4.55515H73.3564V0H76.1306V13.6997H73.5619V12.364H73.1509C72.9112 12.7978 72.563 13.1631 72.1063 13.46C71.6497 13.7568 71.0389 13.9052 70.274 13.9052ZM71.0617 11.953C71.7581 11.953 72.3118 11.6505 72.7228 11.0454C73.1452 10.4289 73.3564 9.60121 73.3564 8.56231C73.3564 7.512 73.1452 6.68431 72.7228 6.07924C72.3118 5.47417 71.7581 5.17164 71.0617 5.17164C70.4338 5.17164 69.9372 5.45705 69.5719 6.02787C69.218 6.58727 69.041 7.43209 69.041 8.56231C69.041 9.69254 69.218 10.5431 69.5719 11.1139C69.9372 11.6733 70.4338 11.953 71.0617 11.953Z" fill="#573AFF"/>
<path id="Vector_15" d="M59.293 13.6998V3.42501H61.8274V5.30872H62.2384C62.3069 4.96623 62.4325 4.64657 62.6151 4.34974C62.8092 4.0415 63.1003 3.79605 63.4885 3.61338C63.8767 3.41931 64.3961 3.32227 65.0468 3.32227H65.5948V5.82246H64.8413C63.871 5.82246 63.1631 6.06791 62.7179 6.55882C62.2841 7.04973 62.0672 7.78609 62.0672 8.7679V13.6998H59.293Z" fill="#573AFF"/>
<path id="Vector_16" d="M52.827 13.9565C51.2059 13.9565 49.9672 13.4713 49.111 12.5009C48.2662 11.5305 47.8438 10.2119 47.8438 8.5451C47.8438 7.42629 48.0321 6.46731 48.4089 5.66816C48.797 4.86901 49.3564 4.25253 50.0871 3.8187C50.8291 3.38488 51.731 3.16797 52.7928 3.16797C54.3226 3.16797 55.4927 3.63033 56.3033 4.55506C57.1253 5.47979 57.5363 6.83835 57.5363 8.63073V9.21296H50.5494C50.6065 10.0806 50.8291 10.7656 51.2173 11.2679C51.6169 11.7588 52.1534 12.0043 52.827 12.0043C53.3636 12.0043 53.7917 11.8444 54.1114 11.5248C54.4424 11.2051 54.6594 10.8341 54.7621 10.4117H57.3993C57.2965 11.0396 57.0682 11.6218 56.7143 12.1584C56.3604 12.695 55.8638 13.1288 55.2245 13.4599C54.5851 13.7909 53.786 13.9565 52.827 13.9565ZM50.5494 7.46625H54.8306C54.7849 6.68993 54.5909 6.09057 54.2484 5.66816C53.9059 5.23434 53.415 5.01743 52.7756 5.01743C52.1477 5.01743 51.6397 5.22292 51.2516 5.63391C50.8748 6.03349 50.6408 6.64427 50.5494 7.46625Z" fill="#573AFF"/>
<path id="Vector_17" d="M43.194 13.6989C42.9315 13.3907 42.7203 13.0197 42.5604 12.5858C42.412 12.152 42.3378 11.5013 42.3378 10.6336V5.37637H40.9336V3.42416H42.3721V0.855469H45.0949V3.42416H46.756V5.37637H45.0949V10.3425C45.0949 11.2444 45.1976 11.9351 45.4031 12.4146C45.6086 12.8941 45.8541 13.2879 46.1395 13.5962V13.6989H43.194Z" fill="#573AFF"/>
<path id="Vector_18" d="M35.7685 13.9565C34.6268 13.9565 33.7135 13.7795 33.0285 13.4256C32.3549 13.0603 31.8583 12.6036 31.5387 12.0557C31.2304 11.5077 31.0535 10.9597 31.0078 10.4117H33.645C33.7021 10.7085 33.822 10.9825 34.0046 11.2337C34.1987 11.4734 34.4499 11.6618 34.7581 11.7988C35.0778 11.9358 35.4602 12.0043 35.9055 12.0043C36.4534 12.0043 36.8473 11.9129 37.0871 11.7303C37.3268 11.5362 37.4467 11.2908 37.4467 10.9939C37.4467 10.7199 37.3325 10.4916 37.1042 10.3089C36.8873 10.1149 36.5277 9.9379 36.0253 9.77808L34.7924 9.36708C34.1987 9.16159 33.6507 8.93897 33.1484 8.69922C32.6461 8.44806 32.2408 8.1284 31.9325 7.74024C31.6357 7.35209 31.4873 6.84976 31.4873 6.23328C31.4873 5.31996 31.8355 4.5836 32.5319 4.0242C33.2283 3.45338 34.2158 3.16797 35.4945 3.16797C36.4192 3.16797 37.1727 3.31067 37.7549 3.59608C38.3486 3.88149 38.7938 4.26394 39.0906 4.74343C39.3875 5.21151 39.5587 5.73095 39.6044 6.30177H37.0699C37.0128 5.89078 36.8416 5.57683 36.5562 5.35992C36.2708 5.13159 35.8826 5.01743 35.3917 5.01743C34.9465 5.01743 34.6097 5.10305 34.3814 5.2743C34.1645 5.44554 34.056 5.67958 34.056 5.97641C34.056 6.27323 34.1759 6.51869 34.4156 6.71277C34.6554 6.90685 35.0207 7.0838 35.5116 7.24363L36.7446 7.6375C37.3382 7.82016 37.8805 8.03707 38.3714 8.28823C38.8737 8.52798 39.2733 8.84764 39.5701 9.24721C39.867 9.63537 40.0154 10.1434 40.0154 10.7713C40.0154 11.7303 39.65 12.5009 38.9194 13.0831C38.2002 13.6654 37.1498 13.9565 35.7685 13.9565Z" fill="#573AFF"/>
<path id="Vector_19" d="M14.4727 13.6996V3.42484H17.0414V4.96605H17.4523C17.6464 4.47515 17.9547 4.05274 18.3771 3.69883C18.7995 3.34492 19.4103 3.16797 20.2094 3.16797C20.9172 3.16797 21.5052 3.3278 21.9732 3.64746C22.4527 3.9557 22.8181 4.39523 23.0692 4.96605H23.4802C23.6857 4.45232 24.0054 4.0242 24.4392 3.68171C24.873 3.33921 25.4724 3.16797 26.2373 3.16797C27.3447 3.16797 28.1724 3.52759 28.7203 4.24682C29.2683 4.96605 29.5423 5.94216 29.5423 7.17513V13.6996H26.7681V7.6375C26.7681 6.9411 26.654 6.39882 26.4256 6.01066C26.1973 5.6225 25.8263 5.42842 25.3125 5.42842C24.6846 5.42842 24.2052 5.691 23.8741 6.21615C23.5544 6.74131 23.3946 7.38634 23.3946 8.15124V13.6996H20.6204V7.6375C20.6204 6.9411 20.5062 6.39882 20.2779 6.01066C20.0496 5.6225 19.6785 5.42842 19.1648 5.42842C18.5483 5.42842 18.0745 5.691 17.7435 6.21615C17.4124 6.74131 17.2468 7.38634 17.2468 8.15124V13.6996H14.4727Z" fill="#573AFF"/>
<path id="Vector_20" d="M0.5 13.699V13.5963L4.52429 0.341797H9.02806L13.0695 13.5963V13.699H10.124L6.88749 2.568H6.4765L3.20569 13.699H0.5ZM3.8393 10.3597L4.43866 8.202H8.92532L9.52468 10.3597H3.8393Z" fill="#573AFF"/>
</g>
</svg>
