<svg width="204" height="88" viewBox="0 0 204 88" fill="none" xmlns="http://www.w3.org/2000/svg">
<path d="M196.201 87.1917C193.644 87.1917 191.69 86.4263 190.339 84.8954C189.006 83.3645 188.34 81.2843 188.34 78.6548C188.34 76.8898 188.637 75.3769 189.231 74.1162C189.844 72.8554 190.726 71.8829 191.879 71.1985C193.05 70.5141 194.472 70.1719 196.147 70.1719C198.561 70.1719 200.407 70.9013 201.686 72.3601C202.982 73.819 203.631 75.9622 203.631 78.7899V79.7084H192.608C192.698 81.0772 193.05 82.1578 193.662 82.9503C194.292 83.7247 195.139 84.112 196.201 84.112C197.048 84.112 197.723 83.8598 198.228 83.3555C198.75 82.8512 199.092 82.2659 199.254 81.5995H203.415C203.252 82.5901 202.892 83.5086 202.334 84.3551C201.776 85.2016 200.992 85.886 199.984 86.4083C198.975 86.9306 197.714 87.1917 196.201 87.1917ZM192.608 76.9528H199.362C199.29 75.7281 198.984 74.7825 198.444 74.1162C197.903 73.4318 197.129 73.0896 196.12 73.0896C195.13 73.0896 194.328 73.4138 193.716 74.0621C193.122 74.6925 192.752 75.6561 192.608 76.9528Z" fill="#6A51FB"/>
<path d="M171.055 86.7865V70.5771H175.107V73.0085H175.755C176.08 72.198 176.575 71.5227 177.241 70.9823C177.926 70.442 178.925 70.1719 180.24 70.1719C182.041 70.1719 183.392 70.7392 184.292 71.8739C185.193 73.0085 185.643 74.5484 185.643 76.4935V86.7865H181.267V77.223C181.267 76.1063 181.068 75.2508 180.672 74.6565C180.276 74.0441 179.628 73.7379 178.727 73.7379C177.683 73.7379 176.872 74.1522 176.296 74.9807C175.719 75.7911 175.431 76.8087 175.431 78.0334V86.7865H171.055Z" fill="#6A51FB"/>
<path d="M162.67 86.7879V70.5785H167.046V86.7879H162.67ZM164.858 68.7144C164.084 68.7144 163.498 68.5163 163.102 68.1201C162.706 67.7058 162.508 67.1745 162.508 66.5262C162.508 65.8778 162.706 65.3555 163.102 64.9593C163.498 64.545 164.084 64.3379 164.858 64.3379C165.633 64.3379 166.218 64.545 166.614 64.9593C167.01 65.3555 167.209 65.8778 167.209 66.5262C167.209 67.1745 167.01 67.7058 166.614 68.1201C166.218 68.5163 165.633 68.7144 164.858 68.7144Z" fill="#6A51FB"/>
<path d="M144.305 86.7864V65.1738H148.681V72.5221H149.33C149.69 71.8377 150.185 71.2794 150.815 70.8471C151.464 70.3969 152.355 70.1717 153.49 70.1717C155.291 70.1717 156.642 70.7391 157.542 71.8737C158.443 73.0084 158.893 74.5483 158.893 76.4934V86.7864H154.517V77.2228C154.517 76.1062 154.318 75.2507 153.922 74.6563C153.526 74.044 152.878 73.7378 151.977 73.7378C150.933 73.7378 150.122 74.152 149.546 74.9805C148.969 75.791 148.681 76.8086 148.681 78.0333V86.7864H144.305Z" fill="#6A51FB"/>
<path d="M134.176 87.1917C131.673 87.1917 129.763 86.4263 128.449 84.8954C127.134 83.3645 126.477 81.2933 126.477 78.6818C126.477 75.9262 127.17 73.819 128.557 72.3601C129.962 70.9013 131.853 70.1719 134.23 70.1719C136.373 70.1719 138.057 70.7392 139.282 71.8739C140.507 73.0085 141.236 74.5574 141.47 76.5206H137.148C137.022 75.4579 136.707 74.6475 136.202 74.0891C135.698 73.5308 135.05 73.2517 134.257 73.2517C133.212 73.2517 132.411 73.7199 131.853 74.6565C131.294 75.593 131.015 76.9348 131.015 78.6818C131.015 80.4288 131.285 81.7706 131.826 82.7071C132.384 83.6437 133.185 84.112 134.23 84.112C135.041 84.112 135.698 83.8328 136.202 83.2745C136.707 82.6981 137.022 81.8877 137.148 80.8431H141.47C141.218 82.7702 140.471 84.3101 139.228 85.4627C138.003 86.6154 136.319 87.1917 134.176 87.1917Z" fill="#6A51FB"/>
<path d="M114.424 87.1097C112.911 87.1097 111.668 86.7495 110.696 86.0291C109.723 85.2907 109.003 84.2821 108.534 83.0033C108.066 81.7246 107.832 80.2748 107.832 78.6538C107.832 76.9789 108.066 75.511 108.534 74.2503C109.021 72.9895 109.75 72.008 110.723 71.3056C111.695 70.6032 112.92 70.252 114.397 70.252C115.531 70.252 116.459 70.4771 117.179 70.9273C117.918 71.3596 118.476 71.9449 118.854 72.6834H119.503V70.5761H123.555V86.7855H119.503V84.6783H118.854C118.476 85.3627 117.927 85.939 117.206 86.4073C116.486 86.8756 115.559 87.1097 114.424 87.1097ZM115.559 84.0299C116.657 84.0299 117.531 83.5527 118.179 82.5981C118.845 81.6256 119.179 80.3198 119.179 78.6808C119.179 77.0239 118.845 75.7181 118.179 74.7636C117.531 73.809 116.657 73.3317 115.559 73.3317C114.568 73.3317 113.784 73.782 113.208 74.6825C112.65 75.565 112.371 76.8978 112.371 78.6808C112.371 80.4639 112.65 81.8057 113.208 82.7062C113.784 83.5887 114.568 84.0299 115.559 84.0299Z" fill="#6A51FB"/>
<path d="M80.0586 86.7871V65.7148H88.0552L91.9725 83.221H92.9451L96.8623 65.7148H104.859V86.7871H100.645V69.443H99.9421L96.1059 86.7871H88.5955L84.7593 69.443H84.0569V86.7871H80.0586Z" fill="#6A51FB"/>
<path d="M63.2639 87.1917C60.7064 87.1917 58.7523 86.4263 57.4015 84.8954C56.0687 83.3645 55.4023 81.2843 55.4023 78.6548C55.4023 76.8898 55.6995 75.3769 56.2939 74.1162C56.9062 72.8554 57.7887 71.8829 58.9414 71.1985C60.1121 70.5141 61.5349 70.1719 63.2099 70.1719C65.6233 70.1719 67.4693 70.9013 68.7481 72.3601C70.0448 73.819 70.6932 75.9622 70.6932 78.7899V79.7084H59.6708C59.7609 81.0772 60.1121 82.1578 60.7244 82.9503C61.3548 83.7247 62.2013 84.112 63.2639 84.112C64.1104 84.112 64.7858 83.8598 65.2901 83.3555C65.8124 82.8512 66.1546 82.2659 66.3167 81.5995H70.4771C70.315 82.5901 69.9548 83.5086 69.3965 84.3551C68.8381 85.2016 68.0547 85.886 67.0461 86.4083C66.0375 86.9306 64.7768 87.1917 63.2639 87.1917ZM59.6708 76.9528H66.4247C66.3527 75.7281 66.0465 74.7825 65.5062 74.1162C64.9659 73.4318 64.1914 73.0896 63.1829 73.0896C62.1923 73.0896 61.3908 73.4138 60.7785 74.0621C60.1841 74.6925 59.8149 75.6561 59.6708 76.9528Z" fill="#6A51FB"/>
<path d="M28.9414 86.7865V70.5771H32.9938V73.0085H33.6421C33.9483 72.2341 34.4346 71.5677 35.101 71.0094C35.7674 70.451 36.7309 70.1719 37.9917 70.1719C39.1083 70.1719 40.0358 70.424 40.7743 70.9283C41.5307 71.4146 42.107 72.108 42.5033 73.0085H43.1516C43.4758 72.198 43.9801 71.5227 44.6645 70.9823C45.3489 70.442 46.2945 70.1719 47.5012 70.1719C49.2482 70.1719 50.5539 70.7392 51.4184 71.8739C52.2829 73.0085 52.7152 74.5484 52.7152 76.4935V86.7865H48.3387V77.223C48.3387 76.1243 48.1585 75.2688 47.7983 74.6565C47.4381 74.0441 46.8528 73.7379 46.0423 73.7379C45.0517 73.7379 44.2953 74.1522 43.773 74.9807C43.2687 75.8091 43.0166 76.8267 43.0166 78.0334V86.7865H38.64V77.223C38.64 76.1243 38.4599 75.2688 38.0997 74.6565C37.7395 74.0441 37.1542 73.7379 36.3437 73.7379C35.3711 73.7379 34.6237 74.1522 34.1014 74.9807C33.5791 75.8091 33.3179 76.8267 33.3179 78.0334V86.7865H28.9414Z" fill="#6A51FB"/>
<path d="M20.5527 86.7879V70.5785H24.9293V86.7879H20.5527ZM22.741 68.7144C21.9665 68.7144 21.3812 68.5163 20.985 68.1201C20.5887 67.7058 20.3906 67.1745 20.3906 66.5262C20.3906 65.8778 20.5887 65.3555 20.985 64.9593C21.3812 64.545 21.9665 64.3379 22.741 64.3379C23.5154 64.3379 24.1008 64.545 24.497 64.9593C24.8932 65.3555 25.0913 65.8778 25.0913 66.5262C25.0913 67.1745 24.8932 67.7058 24.497 68.1201C24.1008 68.5163 23.5154 68.7144 22.741 68.7144Z" fill="#6A51FB"/>
<path d="M6.95546 86.7871V69.2809H0.714844V65.7148H17.7347V69.2809H11.4941V86.7871H6.95546Z" fill="#6A51FB"/>
<path d="M142.09 21.9486V5.73922H146.142V8.17063H146.791C147.097 7.39618 147.583 6.72979 148.249 6.17147C148.916 5.61315 149.879 5.33398 151.14 5.33398C152.257 5.33398 153.184 5.58613 153.923 6.09042C154.679 6.5767 155.255 7.27011 155.652 8.17063H156.3C156.624 7.36016 157.129 6.68477 157.813 6.14445C158.497 5.60414 159.443 5.33398 160.65 5.33398C162.397 5.33398 163.702 5.90131 164.567 7.03597C165.431 8.17063 165.864 9.71052 165.864 11.6556V21.9486H161.487V12.3851C161.487 11.2864 161.307 10.4309 160.947 9.81858C160.587 9.20623 160.001 8.90005 159.191 8.90005C158.2 8.90005 157.444 9.31429 156.921 10.1428C156.417 10.9713 156.165 11.9888 156.165 13.1955V21.9486H151.788V12.3851C151.788 11.2864 151.608 10.4309 151.248 9.81858C150.888 9.20623 150.303 8.90005 149.492 8.90005C148.52 8.90005 147.772 9.31429 147.25 10.1428C146.728 10.9713 146.466 11.9888 146.466 13.1955V21.9486H142.09Z" fill="#6A51FB"/>
<path d="M128.955 22.2718C127.442 22.2718 126.2 21.9116 125.227 21.1912C124.254 20.4528 123.534 19.4442 123.066 18.1655C122.597 16.8867 122.363 15.4369 122.363 13.8159C122.363 12.141 122.597 10.6731 123.066 9.41238C123.552 8.15165 124.281 7.17008 125.254 6.46767C126.227 5.76527 127.451 5.41406 128.928 5.41406C130.063 5.41406 130.99 5.63919 131.711 6.08945C132.449 6.5217 133.007 7.10704 133.386 7.84547H134.034V5.73825H138.086V21.9476H134.034V19.8404H133.386C133.007 20.5248 132.458 21.1012 131.738 21.5694C131.017 22.0377 130.09 22.2718 128.955 22.2718ZM130.09 19.192C131.188 19.192 132.062 18.7148 132.71 17.7602C133.377 16.7877 133.71 15.4819 133.71 13.8429C133.71 12.186 133.377 10.8802 132.71 9.92568C132.062 8.97113 131.188 8.49385 130.09 8.49385C129.099 8.49385 128.316 8.94411 127.739 9.84463C127.181 10.7271 126.902 12.0599 126.902 13.8429C126.902 15.626 127.181 16.9678 127.739 17.8683C128.316 18.7508 129.099 19.192 130.09 19.192Z" fill="#6A51FB"/>
<path d="M110.203 22.2727C108.726 22.2727 107.51 21.9124 106.555 21.192C105.601 20.4536 104.889 19.445 104.421 18.1663C103.953 16.8875 103.719 15.4377 103.719 13.8168C103.719 12.1418 103.953 10.6739 104.421 9.4132C104.907 8.15247 105.628 7.1709 106.582 6.46849C107.555 5.76609 108.762 5.41488 110.203 5.41488C111.265 5.41488 112.13 5.60399 112.796 5.98221C113.48 6.36043 114.021 6.87373 114.417 7.5221H115.065V0.335938H119.442V21.9485H115.39V19.8412H114.741C114.363 20.5256 113.814 21.102 113.093 21.5702C112.373 22.0385 111.409 22.2727 110.203 22.2727ZM111.445 19.1929C112.544 19.1929 113.417 18.7156 114.066 17.761C114.732 16.7885 115.065 15.4827 115.065 13.8438C115.065 12.1868 114.732 10.8811 114.066 9.9265C113.417 8.97194 112.544 8.49467 111.445 8.49467C110.455 8.49467 109.671 8.94493 109.095 9.84545C108.537 10.728 108.257 12.0607 108.257 13.8438C108.257 15.6268 108.537 16.9686 109.095 17.8691C109.671 18.7516 110.455 19.1929 111.445 19.1929Z" fill="#6A51FB"/>
<path d="M92.8672 21.9496V5.74022H96.8655V8.71194H97.5139C97.6219 8.17163 97.8201 7.66734 98.1082 7.19906C98.4144 6.71278 98.8737 6.32556 99.486 6.03739C100.098 5.73121 100.918 5.57812 101.944 5.57812H102.809V9.52241H101.62C100.089 9.52241 98.9727 9.90963 98.2703 10.6841C97.5859 11.4585 97.2437 12.6202 97.2437 14.1691V21.9496H92.8672Z" fill="#6A51FB"/>
<path d="M82.6702 22.3539C80.1127 22.3539 78.1585 21.5884 76.8078 20.0575C75.475 18.5266 74.8086 16.4464 74.8086 13.8169C74.8086 12.0519 75.1058 10.539 75.7001 9.27827C76.3125 8.01754 77.195 7.04498 78.3476 6.36058C79.5183 5.67618 80.9412 5.33398 82.6161 5.33398C85.0295 5.33398 86.8756 6.06341 88.1543 7.52225C89.4511 8.9811 90.0995 11.1243 90.0995 13.952V14.8705H79.0771C79.1671 16.2393 79.5183 17.3199 80.1307 18.1124C80.761 18.8868 81.6075 19.2741 82.6702 19.2741C83.5166 19.2741 84.192 19.0219 84.6963 18.5176C85.2186 18.0133 85.5608 17.428 85.7229 16.7616H89.8833C89.7212 17.7522 89.361 18.6707 88.8027 19.5172C88.2444 20.3637 87.4609 21.0481 86.4523 21.5704C85.4438 22.0927 84.183 22.3539 82.6702 22.3539ZM79.0771 12.1149H85.831C85.7589 10.8902 85.4528 9.94466 84.9125 9.27827C84.3721 8.59387 83.5977 8.25167 82.5891 8.25167C81.5985 8.25167 80.7971 8.57586 80.1847 9.22424C79.5904 9.8546 79.2212 10.8182 79.0771 12.1149Z" fill="#6A51FB"/>
<path d="M67.4723 21.9492C67.0581 21.463 66.7249 20.8776 66.4727 20.1932C66.2386 19.5088 66.1215 18.4822 66.1215 17.1134V8.81963H63.9062V5.73985H66.1756V1.6875H70.4711V5.73985H73.0916V8.81963H70.4711V16.6542C70.4711 18.077 70.6332 19.1666 70.9573 19.9231C71.2815 20.6795 71.6688 21.3009 72.119 21.7872V21.9492H67.4723Z" fill="#6A51FB"/>
<path d="M55.7604 22.3539C53.9593 22.3539 52.5185 22.0747 51.4378 21.5164C50.3752 20.94 49.5918 20.2196 49.0875 19.3551C48.6012 18.4906 48.322 17.6261 48.25 16.7616H52.4104C52.5005 17.2299 52.6896 17.6621 52.9777 18.0584C53.2839 18.4366 53.6801 18.7338 54.1664 18.9499C54.6707 19.166 55.2741 19.2741 55.9765 19.2741C56.841 19.2741 57.4623 19.13 57.8406 18.8418C58.2188 18.5356 58.4079 18.1484 58.4079 17.6801C58.4079 17.2479 58.2278 16.8877 57.8676 16.5995C57.5254 16.2933 56.9581 16.0142 56.1656 15.762L54.2205 15.1137C53.2839 14.7895 52.4194 14.4383 51.627 14.06C50.8345 13.6638 50.1951 13.1595 49.7088 12.5472C49.2406 11.9348 49.0064 11.1424 49.0064 10.1698C49.0064 8.72895 49.5558 7.56728 50.6544 6.68477C51.753 5.78424 53.3109 5.33398 55.3281 5.33398C56.787 5.33398 57.9756 5.55911 58.8942 6.00937C59.8307 6.45964 60.5331 7.06299 61.0014 7.81942C61.4697 8.55785 61.7398 9.37733 61.8119 10.2778H57.8135C57.7235 9.62947 57.4533 9.13419 57.0031 8.79199C56.5528 8.43178 55.9405 8.25167 55.166 8.25167C54.4636 8.25167 53.9323 8.38675 53.5721 8.65691C53.2299 8.92707 53.0588 9.29628 53.0588 9.76455C53.0588 10.2328 53.2479 10.62 53.6261 10.9262C54.0043 11.2324 54.5807 11.5116 55.3551 11.7637L57.3002 12.3851C58.2368 12.6732 59.0923 13.0154 59.8667 13.4117C60.6592 13.7899 61.2896 14.2942 61.7578 14.9245C62.2261 15.5369 62.4602 16.3384 62.4602 17.3289C62.4602 18.8418 61.8839 20.0575 60.7312 20.9761C59.5966 21.8946 57.9396 22.3539 55.7604 22.3539Z" fill="#6A51FB"/>
<path d="M22.168 21.9486V5.73922H26.2203V8.17063H26.8687C27.1749 7.39618 27.6612 6.72979 28.3275 6.17147C28.9939 5.61315 29.9575 5.33398 31.2182 5.33398C32.3349 5.33398 33.2624 5.58613 34.0008 6.09042C34.7573 6.5767 35.3336 7.27011 35.7298 8.17063H36.3782C36.7024 7.36016 37.2067 6.68477 37.8911 6.14445C38.5755 5.60414 39.521 5.33398 40.7277 5.33398C42.4747 5.33398 43.7805 5.90131 44.645 7.03597C45.5095 8.17063 45.9418 9.71052 45.9418 11.6556V21.9486H41.5652V12.3851C41.5652 11.2864 41.3851 10.4309 41.0249 9.81858C40.6647 9.20623 40.0794 8.90005 39.2689 8.90005C38.2783 8.90005 37.5219 9.31429 36.9996 10.1428C36.4953 10.9713 36.2431 11.9888 36.2431 13.1955V21.9486H31.8666V12.3851C31.8666 11.2864 31.6865 10.4309 31.3263 9.81858C30.9661 9.20623 30.3807 8.90005 29.5703 8.90005C28.5977 8.90005 27.8503 9.31429 27.328 10.1428C26.8057 10.9713 26.5445 11.9888 26.5445 13.1955V21.9486H22.168Z" fill="#6A51FB"/>
<path d="M0.121094 21.9492V21.7871L6.46977 0.876953H13.5749L19.9506 21.7871V21.9492H15.3039L10.1979 4.38899H9.54956L4.38957 21.9492H0.121094ZM5.38915 16.6811L6.3347 13.2771H13.4128L14.3583 16.6811H5.38915Z" fill="#6A51FB"/>
<path d="M89.1139 54.7718C87.6191 54.7718 86.3854 54.5107 85.4128 53.9884C84.4402 53.4481 83.7108 52.7546 83.2245 51.9082C82.7383 51.0437 82.4681 50.1341 82.4141 49.1796H85.2777C85.3318 49.7199 85.5029 50.2512 85.791 50.7735C86.0792 51.2778 86.5024 51.692 87.0608 52.0162C87.6191 52.3404 88.3305 52.5025 89.195 52.5025C90.1496 52.5025 90.888 52.3044 91.4103 51.9082C91.9326 51.4939 92.1937 50.9536 92.1937 50.2872C92.1937 49.7109 91.9866 49.2246 91.5724 48.8284C91.1761 48.4141 90.5548 48.0539 89.7083 47.7477L87.7902 47.0724C86.9257 46.7482 86.1422 46.397 85.4398 46.0187C84.7554 45.6225 84.2061 45.1362 83.7919 44.5599C83.3776 43.9656 83.1705 43.2181 83.1705 42.3176C83.1705 40.9308 83.6658 39.8232 84.6564 38.9947C85.6469 38.1662 87.0067 37.752 88.7357 37.752C89.9785 37.752 91.005 37.9681 91.8155 38.4003C92.644 38.8326 93.2744 39.4269 93.7066 40.1834C94.1389 40.9218 94.391 41.7593 94.463 42.6958H91.7074C91.6354 42.0114 91.3653 41.3991 90.897 40.8588C90.4287 40.3004 89.6633 40.0213 88.6006 40.0213C87.7542 40.0213 87.1058 40.2104 86.6555 40.5886C86.2053 40.9488 85.9801 41.4441 85.9801 42.0745C85.9801 42.6868 86.1963 43.1911 86.6285 43.5873C87.0608 43.9836 87.7091 44.3438 88.5736 44.668L90.4917 45.3163C91.3562 45.6405 92.1307 46.0007 92.8151 46.397C93.4995 46.7752 94.0308 47.2525 94.409 47.8288C94.8052 48.4051 95.0034 49.1436 95.0034 50.0441C95.0034 51.4309 94.4991 52.5655 93.4905 53.4481C92.4819 54.3306 91.0231 54.7718 89.1139 54.7718Z" fill="#6A51FB"/>
<path d="M73.4821 54.7718C71.1047 54.7718 69.2946 53.9974 68.0519 52.4485C66.8272 50.8816 66.2148 48.8194 66.2148 46.2619C66.2148 44.5689 66.485 43.092 67.0253 41.8313C67.5836 40.5526 68.3941 39.553 69.4567 38.8326C70.5373 38.1122 71.8701 37.752 73.455 37.752C75.6703 37.752 77.3543 38.4724 78.507 39.9132C79.6776 41.354 80.263 43.4433 80.263 46.1808V47.0183H69.0515C69.1415 48.6032 69.5468 49.909 70.2672 50.9356C71.0056 51.9442 72.0862 52.4485 73.5091 52.4485C74.5357 52.4485 75.3641 52.1603 75.9945 51.584C76.6249 51.0076 77.0751 50.2062 77.3453 49.1796H80.1009C79.8668 50.2782 79.4795 51.2508 78.9392 52.0973C78.3989 52.9257 77.6785 53.5831 76.778 54.0694C75.8774 54.5377 74.7788 54.7718 73.4821 54.7718ZM69.0785 44.9111H77.4263C77.3723 43.3442 76.9941 42.1465 76.2917 41.318C75.5893 40.4895 74.6347 40.0753 73.428 40.0753C72.1493 40.0753 71.1407 40.4985 70.4023 41.345C69.6819 42.1915 69.2406 43.3802 69.0785 44.9111Z" fill="#6A51FB"/>
<path d="M59.7578 54.367V38.1576H62.6755V54.367H59.7578ZM61.2166 35.8883C60.6583 35.8883 60.217 35.7262 59.8929 35.402C59.5867 35.0779 59.4336 34.6456 59.4336 34.1053C59.4336 33.565 59.5867 33.1327 59.8929 32.8085C60.217 32.4844 60.6583 32.3223 61.2166 32.3223C61.793 32.3223 62.2342 32.4844 62.5404 32.8085C62.8466 33.1327 62.9997 33.565 62.9997 34.1053C62.9997 34.6456 62.8466 35.0779 62.5404 35.402C62.2342 35.7262 61.793 35.8883 61.2166 35.8883Z" fill="#6A51FB"/>
<path d="M48.4766 54.3676V38.1582H51.0701V40.9138H51.7184C51.8265 40.4635 52.0156 40.0133 52.2858 39.563C52.5559 39.1127 52.9882 38.7435 53.5825 38.4554C54.1769 38.1492 55.0143 37.9961 56.095 37.9961H56.6353V40.7517H55.8248C54.2039 40.7517 53.0602 41.1749 52.3938 42.0214C51.7274 42.8499 51.3943 44.1557 51.3943 45.9387V54.3676H48.4766Z" fill="#6A51FB"/>
<path d="M36.0261 54.7718C34.6393 54.7718 33.4596 54.4206 32.487 53.7182C31.5145 53.0158 30.767 52.0342 30.2447 50.7735C29.7404 49.4948 29.4883 47.9909 29.4883 46.2619C29.4883 44.5329 29.7404 43.038 30.2447 41.7773C30.767 40.4985 31.5145 39.508 32.487 38.8056C33.4776 38.1032 34.6753 37.752 36.0801 37.752C37.3048 37.752 38.2774 38.0131 38.9978 38.5354C39.7362 39.0397 40.2495 39.616 40.5377 40.2644H41.1861V38.1572H43.7796V54.3666H41.1861V52.2594H40.5377C40.2495 52.9077 39.7362 53.4931 38.9978 54.0154C38.2594 54.5197 37.2688 54.7718 36.0261 54.7718ZM36.5394 52.3404C37.8902 52.3404 38.9618 51.7821 39.7542 50.6654C40.5467 49.5488 40.9429 48.0809 40.9429 46.2619C40.9429 44.4428 40.5467 42.975 39.7542 41.8583C38.9618 40.7417 37.8902 40.1834 36.5394 40.1834C35.2246 40.1834 34.216 40.7147 33.5136 41.7773C32.8112 42.8399 32.46 44.3348 32.46 46.2619C32.46 48.189 32.8112 49.6839 33.5136 50.7465C34.216 51.8091 35.2246 52.3404 36.5394 52.3404Z" fill="#6A51FB"/>
<path d="M23.0351 54.367V38.1576H25.9528V54.367H23.0351ZM24.494 35.8883C23.9356 35.8883 23.4944 35.7262 23.1702 35.402C22.864 35.0779 22.7109 34.6456 22.7109 34.1053C22.7109 33.565 22.864 33.1327 23.1702 32.8085C23.4944 32.4844 23.9356 32.3223 24.494 32.3223C25.0703 32.3223 25.5116 32.4844 25.8177 32.8085C26.1239 33.1327 26.277 33.565 26.277 34.1053C26.277 34.6456 26.1239 35.0779 25.8177 35.402C25.5116 35.7262 25.0703 35.8883 24.494 35.8883Z" fill="#6A51FB"/>
<path d="M2.33984 54.3671V33.2949H9.22884C12.8669 33.2949 15.4965 34.2225 17.1174 36.0775C18.7564 37.9146 19.5758 40.4991 19.5758 43.831C19.5758 47.163 18.7564 49.7565 17.1174 51.6115C15.4965 53.4486 12.8669 54.3671 9.22884 54.3671H2.33984ZM5.39261 51.8277H8.95868C10.7777 51.8277 12.2366 51.5395 13.3352 50.9632C14.4519 50.3688 15.2533 49.4773 15.7396 48.2886C16.2439 47.0999 16.4961 45.6141 16.4961 43.831C16.4961 42.03 16.2439 40.5441 15.7396 39.3734C15.2533 38.1848 14.4519 37.3022 13.3352 36.7259C12.2366 36.1316 10.7777 35.8344 8.95868 35.8344H5.39261V51.8277Z" fill="#6A51FB"/>
</svg>
