<svg xmlns="http://www.w3.org/2000/svg" width="129" height="56" viewBox="0 0 129 56" fill="none">
  <path d="M124.292 55.0561C122.671 55.0561 121.432 54.5709 120.576 53.6005C119.731 52.6301 119.309 51.3115 119.309 49.6447C119.309 48.5259 119.497 47.5669 119.874 46.7678C120.262 45.9686 120.821 45.3521 121.552 44.9183C122.294 44.4845 123.196 44.2676 124.258 44.2676C125.787 44.2676 126.958 44.7299 127.768 45.6547C128.59 46.5794 129.001 47.938 129.001 49.7303V50.3126H122.014C122.071 51.1802 122.294 51.8652 122.682 52.3675C123.082 52.8584 123.618 53.1039 124.292 53.1039C124.828 53.1039 125.257 52.9441 125.576 52.6244C125.907 52.3047 126.124 51.9337 126.227 51.5113H128.864C128.761 52.1392 128.533 52.7214 128.179 53.258C127.825 53.7946 127.329 54.2284 126.689 54.5595C126.05 54.8906 125.251 55.0561 124.292 55.0561ZM122.014 48.5659H126.295C126.25 47.7895 126.056 47.1902 125.713 46.7678C125.371 46.3339 124.88 46.117 124.24 46.117C123.613 46.117 123.105 46.3225 122.716 46.7335C122.34 47.1331 122.106 47.7439 122.014 48.5659Z" fill="#573AFF"/>
  <path d="M108.352 54.7992V44.5244H110.92V46.0657H111.331C111.537 45.5519 111.851 45.1238 112.273 44.7813C112.707 44.4388 113.341 44.2676 114.174 44.2676C115.316 44.2676 116.172 44.6272 116.743 45.3464C117.313 46.0657 117.599 47.0418 117.599 48.2747V54.7992H114.825V48.7371C114.825 48.0293 114.699 47.487 114.448 47.1103C114.197 46.7221 113.786 46.528 113.215 46.528C112.553 46.528 112.039 46.7906 111.674 47.3158C111.308 47.8295 111.126 48.4745 111.126 49.2508V54.7992H108.352Z" fill="#573AFF"/>
  <path d="M103.036 54.7989V44.5241H105.811V54.7989H103.036ZM104.423 43.3426C103.933 43.3426 103.562 43.217 103.31 42.9658C103.059 42.7032 102.934 42.3664 102.934 41.9555C102.934 41.5445 103.059 41.2134 103.31 40.9622C103.562 40.6996 103.933 40.5684 104.423 40.5684C104.914 40.5684 105.285 40.6996 105.537 40.9622C105.788 41.2134 105.913 41.5445 105.913 41.9555C105.913 42.3664 105.788 42.7032 105.537 42.9658C105.285 43.217 104.914 43.3426 104.423 43.3426Z" fill="#573AFF"/>
  <path d="M91.3945 54.7993V41.0996H94.1687V45.7575H94.5797C94.808 45.3237 95.122 44.9698 95.5216 44.6958C95.9326 44.4104 96.4977 44.2677 97.2169 44.2677C98.3585 44.2677 99.2148 44.6273 99.7856 45.3465C100.356 46.0658 100.642 47.0419 100.642 48.2748V54.7993H97.8676V48.7372C97.8676 48.0294 97.7421 47.4871 97.4909 47.1104C97.2397 46.7222 96.8287 46.5281 96.2579 46.5281C95.5958 46.5281 95.082 46.7907 94.7167 47.3158C94.3514 47.8296 94.1687 48.4746 94.1687 49.2509V54.7993H91.3945Z" fill="#573AFF"/>
  <path d="M84.9743 55.0561C83.3874 55.0561 82.1773 54.5709 81.3439 53.6005C80.5105 52.6301 80.0938 51.3172 80.0938 49.6618C80.0938 47.9151 80.5333 46.5794 81.4124 45.6547C82.3028 44.7299 83.5016 44.2676 85.0085 44.2676C86.3671 44.2676 87.4345 44.6272 88.2108 45.3464C88.9871 46.0657 89.4495 47.0475 89.5979 48.2919H86.858C86.7781 47.6183 86.5783 47.1046 86.2586 46.7506C85.939 46.3967 85.528 46.2198 85.0256 46.2198C84.3635 46.2198 83.8555 46.5166 83.5016 47.1103C83.1476 47.7039 82.9707 48.5544 82.9707 49.6618C82.9707 50.7692 83.1419 51.6198 83.4844 52.2134C83.8383 52.8071 84.3464 53.1039 85.0085 53.1039C85.5223 53.1039 85.939 52.9269 86.2586 52.573C86.5783 52.2077 86.7781 51.694 86.858 51.0318H89.5979C89.4381 52.2534 88.9643 53.2295 88.1766 53.9601C87.4003 54.6908 86.3328 55.0561 84.9743 55.0561Z" fill="#573AFF"/>
  <path d="M72.4518 55.0041C71.4929 55.0041 70.7051 54.7758 70.0886 54.3191C69.4722 53.8511 69.0155 53.2118 68.7187 52.4012C68.4219 51.5906 68.2734 50.6716 68.2734 49.6441C68.2734 48.5824 68.4219 47.652 68.7187 46.8528C69.0269 46.0537 69.4893 45.4315 70.1058 44.9862C70.7223 44.541 71.4986 44.3184 72.4347 44.3184C73.154 44.3184 73.7419 44.4611 74.1986 44.7465C74.6666 45.0205 75.0205 45.3915 75.2603 45.8596H75.6713V44.5239H78.24V54.7986H75.6713V53.4629H75.2603C75.0205 53.8967 74.6723 54.2621 74.2157 54.5589C73.759 54.8557 73.1711 55.0041 72.4518 55.0041ZM73.1711 53.0519C73.8675 53.0519 74.4212 52.7494 74.8322 52.1443C75.2546 51.5278 75.4658 50.7001 75.4658 49.6612C75.4658 48.6109 75.2546 47.7832 74.8322 47.1782C74.4212 46.5731 73.8675 46.2706 73.1711 46.2706C72.5432 46.2706 72.0466 46.556 71.6812 47.1268C71.3273 47.6862 71.1504 48.531 71.1504 49.6612C71.1504 50.7915 71.3273 51.642 71.6812 52.2128C72.0466 52.7722 72.5432 53.0519 73.1711 53.0519Z" fill="#573AFF"/>
  <path d="M50.6719 54.7986V41.4414H55.7408L58.2238 52.5382H58.8403L61.3234 41.4414H66.3923V54.7986H63.7208V43.8046H63.2756L60.8439 54.7986H56.0833L53.6516 43.8046H53.2063V54.7986H50.6719Z" fill="#573AFF"/>
  <path d="M40.0262 55.0561C38.4051 55.0561 37.1664 54.5709 36.3102 53.6005C35.4654 52.6301 35.043 51.3115 35.043 49.6447C35.043 48.5259 35.2313 47.5669 35.6081 46.7678C35.9962 45.9686 36.5556 45.3521 37.2863 44.9183C38.0284 44.4845 38.9303 44.2676 39.992 44.2676C41.5218 44.2676 42.692 44.7299 43.5025 45.6547C44.3245 46.5794 44.7355 47.938 44.7355 49.7303V50.3126H37.7487C37.8057 51.1802 38.0284 51.8652 38.4165 52.3675C38.8161 52.8584 39.3527 53.1039 40.0262 53.1039C40.5628 53.1039 40.9909 52.9441 41.3106 52.6244C41.6417 52.3047 41.8586 51.9337 41.9613 51.5113H44.5985C44.4958 52.1392 44.2674 52.7214 43.9135 53.258C43.5596 53.7946 43.063 54.2284 42.4237 54.5595C41.7844 54.8906 40.9852 55.0561 40.0262 55.0561ZM37.7487 48.5659H42.0298C41.9842 47.7895 41.7901 47.1902 41.4476 46.7678C41.1051 46.3339 40.6142 46.117 39.9749 46.117C39.347 46.117 38.8389 46.3225 38.4508 46.7335C38.074 47.1331 37.84 47.7439 37.7487 48.5659Z" fill="#573AFF"/>
  <path d="M18.2695 54.7992V44.5244H20.8382V46.0657H21.2492C21.4433 45.5748 21.7515 45.1524 22.1739 44.7984C22.5964 44.4445 23.2071 44.2676 24.0063 44.2676C24.7141 44.2676 25.302 44.4274 25.7701 44.7471C26.2496 45.0553 26.6149 45.4948 26.8661 46.0657H27.2771C27.4826 45.5519 27.8022 45.1238 28.2361 44.7813C28.6699 44.4388 29.2692 44.2676 30.0341 44.2676C31.1415 44.2676 31.9692 44.6272 32.5172 45.3464C33.0652 46.0657 33.3392 47.0418 33.3392 48.2747V54.7992H30.565V48.7371C30.565 48.0407 30.4508 47.4984 30.2225 47.1103C29.9942 46.7221 29.6232 46.528 29.1094 46.528C28.4815 46.528 28.002 46.7906 27.671 47.3158C27.3513 47.8409 27.1915 48.4859 27.1915 49.2508V54.7992H24.4173V48.7371C24.4173 48.0407 24.3031 47.4984 24.0748 47.1103C23.8465 46.7221 23.4754 46.528 22.9617 46.528C22.3452 46.528 21.8714 46.7906 21.5403 47.3158C21.2093 47.8409 21.0437 48.4859 21.0437 49.2508V54.7992H18.2695Z" fill="#573AFF"/>
  <path d="M12.9504 54.7989V44.5241H15.7246V54.7989H12.9504ZM14.3375 43.3426C13.8466 43.3426 13.4756 43.217 13.2244 42.9658C12.9732 42.7032 12.8477 42.3664 12.8477 41.9555C12.8477 41.5445 12.9732 41.2134 13.2244 40.9622C13.4756 40.6996 13.8466 40.5684 14.3375 40.5684C14.8284 40.5684 15.1994 40.6996 15.4506 40.9622C15.7018 41.2134 15.8273 41.5445 15.8273 41.9555C15.8273 42.3664 15.7018 42.7032 15.4506 42.9658C15.1994 43.217 14.8284 43.3426 14.3375 43.3426Z" fill="#573AFF"/>
  <path d="M4.33079 54.7986V43.7019H0.375V41.4414H11.1635V43.7019H7.20773V54.7986H4.33079Z" fill="#573AFF"/>
  <path d="M89.9922 13.6996V3.42484H92.5609V4.96605H92.9719C93.166 4.47515 93.4742 4.05274 93.8966 3.69883C94.319 3.34492 94.9298 3.16797 95.7289 3.16797C96.4368 3.16797 97.0247 3.3278 97.4928 3.64746C97.9723 3.9557 98.3376 4.39523 98.5887 4.96605H98.9997C99.2052 4.45232 99.5249 4.0242 99.9587 3.68171C100.393 3.33921 100.992 3.16797 101.757 3.16797C102.864 3.16797 103.692 3.52759 104.24 4.24682C104.788 4.96605 105.062 5.94216 105.062 7.17513V13.6996H102.288V7.6375C102.288 6.9411 102.174 6.39882 101.945 6.01066C101.717 5.6225 101.346 5.42842 100.832 5.42842C100.204 5.42842 99.7247 5.691 99.3936 6.21615C99.074 6.74131 98.9141 7.38634 98.9141 8.15124V13.6996H96.1399V7.6375C96.1399 6.9411 96.0258 6.39882 95.7974 6.01066C95.5691 5.6225 95.1981 5.42842 94.6843 5.42842C94.0679 5.42842 93.5941 5.691 93.263 6.21615C92.9319 6.74131 92.7664 7.38634 92.7664 8.15124V13.6996H89.9922Z" fill="#573AFF"/>
  <path d="M81.6628 13.9045C80.7038 13.9045 79.9161 13.6762 79.2996 13.2195C78.6831 12.7515 78.2264 12.1121 77.9296 11.3016C77.6328 10.491 77.4844 9.57199 77.4844 8.54451C77.4844 7.48278 77.6328 6.55234 77.9296 5.75319C78.2379 4.95405 78.7002 4.33185 79.3167 3.88661C79.9332 3.44137 80.7095 3.21875 81.6457 3.21875C82.3649 3.21875 82.9528 3.36146 83.4095 3.64687C83.8776 3.92086 84.2315 4.29189 84.4712 4.75997H84.8822V3.42425H87.4509V13.699H84.8822V12.3633H84.4712C84.2315 12.7971 83.8833 13.1625 83.4266 13.4593C82.97 13.7561 82.382 13.9045 81.6628 13.9045ZM82.382 11.9523C83.0784 11.9523 83.6321 11.6498 84.0431 11.0447C84.4655 10.4282 84.6767 9.60053 84.6767 8.56163C84.6767 7.51132 84.4655 6.68363 84.0431 6.07856C83.6321 5.47349 83.0784 5.17096 82.382 5.17096C81.7541 5.17096 81.2575 5.45637 80.8922 6.02719C80.5383 6.58659 80.3613 7.43141 80.3613 8.56163C80.3613 9.69186 80.5383 10.5424 80.8922 11.1132C81.2575 11.6726 81.7541 11.9523 82.382 11.9523Z" fill="#573AFF"/>
  <path d="M69.774 13.9052C68.8378 13.9052 68.0672 13.6769 67.4622 13.2202C66.8571 12.7521 66.4061 12.1128 66.1093 11.3023C65.8125 10.4917 65.6641 9.57267 65.6641 8.54519C65.6641 7.48346 65.8125 6.55302 66.1093 5.75387C66.4175 4.95473 66.8742 4.33253 67.4793 3.88729C68.0958 3.44205 68.8607 3.21943 69.774 3.21943C70.4475 3.21943 70.9955 3.3393 71.4179 3.57905C71.8518 3.81879 72.1943 4.14416 72.4454 4.55515H72.8564V0H75.6306V13.6997H73.0619V12.364H72.6509C72.4112 12.7978 72.063 13.1631 71.6063 13.46C71.1497 13.7568 70.5389 13.9052 69.774 13.9052ZM70.5617 11.953C71.2581 11.953 71.8118 11.6505 72.2228 11.0454C72.6452 10.4289 72.8564 9.60121 72.8564 8.56231C72.8564 7.512 72.6452 6.68431 72.2228 6.07924C71.8118 5.47417 71.2581 5.17164 70.5617 5.17164C69.9338 5.17164 69.4372 5.45705 69.0719 6.02787C68.718 6.58727 68.541 7.43209 68.541 8.56231C68.541 9.69254 68.718 10.5431 69.0719 11.1139C69.4372 11.6733 69.9338 11.953 70.5617 11.953Z" fill="#573AFF"/>
  <path d="M58.793 13.6998V3.42501H61.3274V5.30872H61.7384C61.8069 4.96623 61.9325 4.64657 62.1151 4.34974C62.3092 4.0415 62.6003 3.79605 62.9885 3.61338C63.3767 3.41931 63.8961 3.32227 64.5468 3.32227H65.0948V5.82246H64.3413C63.371 5.82246 62.6631 6.06791 62.2179 6.55882C61.7841 7.04973 61.5672 7.78609 61.5672 8.7679V13.6998H58.793Z" fill="#573AFF"/>
  <path d="M52.327 13.9565C50.7059 13.9565 49.4672 13.4713 48.611 12.5009C47.7662 11.5305 47.3438 10.2119 47.3438 8.5451C47.3438 7.42629 47.5321 6.46731 47.9089 5.66816C48.297 4.86901 48.8564 4.25253 49.5871 3.8187C50.3291 3.38488 51.231 3.16797 52.2928 3.16797C53.8226 3.16797 54.9927 3.63033 55.8033 4.55506C56.6253 5.47979 57.0363 6.83835 57.0363 8.63073V9.21296H50.0494C50.1065 10.0806 50.3291 10.7656 50.7173 11.2679C51.1169 11.7588 51.6534 12.0043 52.327 12.0043C52.8636 12.0043 53.2917 11.8444 53.6114 11.5248C53.9424 11.2051 54.1594 10.8341 54.2621 10.4117H56.8993C56.7965 11.0396 56.5682 11.6218 56.2143 12.1584C55.8604 12.695 55.3638 13.1288 54.7245 13.4599C54.0851 13.7909 53.286 13.9565 52.327 13.9565ZM50.0494 7.46625H54.3306C54.2849 6.68993 54.0909 6.09057 53.7484 5.66816C53.4059 5.23434 52.915 5.01743 52.2756 5.01743C51.6477 5.01743 51.1397 5.22292 50.7516 5.63391C50.3748 6.03349 50.1408 6.64427 50.0494 7.46625Z" fill="#573AFF"/>
  <path d="M42.694 13.6989C42.4315 13.3907 42.2203 13.0197 42.0604 12.5858C41.912 12.152 41.8378 11.5013 41.8378 10.6336V5.37637H40.4336V3.42416H41.8721V0.855469H44.5949V3.42416H46.256V5.37637H44.5949V10.3425C44.5949 11.2444 44.6976 11.9351 44.9031 12.4146C45.1086 12.8941 45.3541 13.2879 45.6395 13.5962V13.6989H42.694Z" fill="#573AFF"/>
  <path d="M35.2685 13.9565C34.1268 13.9565 33.2135 13.7795 32.5285 13.4256C31.8549 13.0603 31.3583 12.6036 31.0387 12.0557C30.7304 11.5077 30.5535 10.9597 30.5078 10.4117H33.145C33.2021 10.7085 33.322 10.9825 33.5046 11.2337C33.6987 11.4734 33.9499 11.6618 34.2581 11.7988C34.5778 11.9358 34.9602 12.0043 35.4055 12.0043C35.9534 12.0043 36.3473 11.9129 36.5871 11.7303C36.8268 11.5362 36.9467 11.2908 36.9467 10.9939C36.9467 10.7199 36.8325 10.4916 36.6042 10.3089C36.3873 10.1149 36.0277 9.9379 35.5253 9.77808L34.2924 9.36708C33.6987 9.16159 33.1507 8.93897 32.6484 8.69922C32.1461 8.44806 31.7408 8.1284 31.4325 7.74024C31.1357 7.35209 30.9873 6.84976 30.9873 6.23328C30.9873 5.31996 31.3355 4.5836 32.0319 4.0242C32.7283 3.45338 33.7158 3.16797 34.9945 3.16797C35.9192 3.16797 36.6727 3.31067 37.2549 3.59608C37.8486 3.88149 38.2938 4.26394 38.5906 4.74343C38.8875 5.21151 39.0587 5.73095 39.1044 6.30177H36.5699C36.5128 5.89078 36.3416 5.57683 36.0562 5.35992C35.7708 5.13159 35.3826 5.01743 34.8917 5.01743C34.4465 5.01743 34.1097 5.10305 33.8814 5.2743C33.6645 5.44554 33.556 5.67958 33.556 5.97641C33.556 6.27323 33.6759 6.51869 33.9156 6.71277C34.1554 6.90685 34.5207 7.0838 35.0116 7.24363L36.2446 7.6375C36.8382 7.82016 37.3805 8.03707 37.8714 8.28823C38.3737 8.52798 38.7733 8.84764 39.0701 9.24721C39.367 9.63537 39.5154 10.1434 39.5154 10.7713C39.5154 11.7303 39.15 12.5009 38.4194 13.0831C37.7002 13.6654 36.6498 13.9565 35.2685 13.9565Z" fill="#573AFF"/>
  <path d="M13.9727 13.6996V3.42484H16.5414V4.96605H16.9523C17.1464 4.47515 17.4547 4.05274 17.8771 3.69883C18.2995 3.34492 18.9103 3.16797 19.7094 3.16797C20.4172 3.16797 21.0052 3.3278 21.4732 3.64746C21.9527 3.9557 22.3181 4.39523 22.5692 4.96605H22.9802C23.1857 4.45232 23.5054 4.0242 23.9392 3.68171C24.373 3.33921 24.9724 3.16797 25.7373 3.16797C26.8447 3.16797 27.6724 3.52759 28.2203 4.24682C28.7683 4.96605 29.0423 5.94216 29.0423 7.17513V13.6996H26.2681V7.6375C26.2681 6.9411 26.154 6.39882 25.9256 6.01066C25.6973 5.6225 25.3263 5.42842 24.8125 5.42842C24.1846 5.42842 23.7052 5.691 23.3741 6.21615C23.0544 6.74131 22.8946 7.38634 22.8946 8.15124V13.6996H20.1204V7.6375C20.1204 6.9411 20.0062 6.39882 19.7779 6.01066C19.5496 5.6225 19.1785 5.42842 18.6648 5.42842C18.0483 5.42842 17.5745 5.691 17.2435 6.21615C16.9124 6.74131 16.7468 7.38634 16.7468 8.15124V13.6996H13.9727Z" fill="#573AFF"/>
  <path d="M0 13.699V13.5963L4.02429 0.341797H8.52806L12.5695 13.5963V13.699H9.62404L6.38749 2.568H5.9765L2.70569 13.699H0ZM3.3393 10.3597L3.93866 8.202H8.42532L9.02468 10.3597H3.3393Z" fill="#573AFF"/>
  <path d="M56.4071 34.5053C55.4595 34.5053 54.6775 34.3398 54.061 34.0087C53.4445 33.6662 52.9821 33.2267 52.6739 32.6901C52.3657 32.1421 52.1944 31.5656 52.1602 30.9605H53.9754C54.0096 31.303 54.1181 31.6398 54.3007 31.9709C54.4834 32.2905 54.7517 32.5531 55.1056 32.7586C55.4595 32.9641 55.9105 33.0668 56.4584 33.0668C57.0635 33.0668 57.5316 32.9413 57.8627 32.6901C58.1937 32.4275 58.3593 32.085 58.3593 31.6626C58.3593 31.2973 58.228 30.9891 57.9654 30.7379C57.7142 30.4753 57.3204 30.247 56.7838 30.0529L55.568 29.6248C55.02 29.4193 54.5234 29.1967 54.0781 28.9569C53.6443 28.7058 53.2961 28.3975 53.0335 28.0322C52.7709 27.6555 52.6396 27.1817 52.6396 26.6109C52.6396 25.7318 52.9536 25.0297 53.5815 24.5045C54.2094 23.9794 55.0713 23.7168 56.1673 23.7168C56.9551 23.7168 57.6058 23.8538 58.1195 24.1278C58.6447 24.4018 59.0443 24.7785 59.3183 25.258C59.5922 25.7261 59.7521 26.2569 59.7977 26.8506H58.051C58.0054 26.4168 57.8341 26.0286 57.5373 25.6861C57.2405 25.3322 56.7553 25.1553 56.0817 25.1553C55.5451 25.1553 55.1341 25.2751 54.8487 25.5149C54.5633 25.7432 54.4206 26.0572 54.4206 26.4567C54.4206 26.8449 54.5576 27.1646 54.8316 27.4157C55.1056 27.6669 55.5166 27.8952 56.0646 28.1007L57.2804 28.5117C57.8284 28.7172 58.3193 28.9455 58.7531 29.1967C59.187 29.4364 59.5237 29.739 59.7635 30.1043C60.0147 30.4696 60.1402 30.9377 60.1402 31.5085C60.1402 32.3876 59.8206 33.1068 59.1813 33.6662C58.5419 34.2256 57.6172 34.5053 56.4071 34.5053Z" fill="#573AFF"/>
  <path d="M46.4971 34.5053C44.9902 34.5053 43.8428 34.0144 43.0551 33.0326C42.2788 32.0394 41.8906 30.7322 41.8906 29.1111C41.8906 28.0379 42.0619 27.1018 42.4044 26.3026C42.7583 25.492 43.272 24.8584 43.9456 24.4018C44.6306 23.9451 45.4754 23.7168 46.48 23.7168C47.8842 23.7168 48.9517 24.1735 49.6823 25.0868C50.4244 26.0001 50.7954 27.3244 50.7954 29.0597V29.5905H43.6887C43.7458 30.5952 44.0027 31.4229 44.4593 32.0736C44.9274 32.7129 45.6124 33.0326 46.5143 33.0326C47.165 33.0326 47.6902 32.8499 48.0897 32.4846C48.4893 32.1193 48.7747 31.6113 48.946 30.9605H50.6927C50.5443 31.6569 50.2988 32.2734 49.9563 32.81C49.6138 33.3351 49.1572 33.7518 48.5864 34.0601C48.0155 34.3569 47.3191 34.5053 46.4971 34.5053ZM43.7058 28.2548H48.9973C48.9631 27.2616 48.7234 26.5024 48.2781 25.9772C47.8329 25.4521 47.2278 25.1895 46.4629 25.1895C45.6523 25.1895 45.013 25.4578 44.5449 25.9944C44.0883 26.5309 43.8086 27.2844 43.7058 28.2548Z" fill="#573AFF"/>
  <path d="M37.7953 34.2491V23.9743H39.6448V34.2491H37.7953ZM38.7201 22.5358C38.3662 22.5358 38.0865 22.4331 37.881 22.2276C37.6869 22.0221 37.5898 21.7481 37.5898 21.4056C37.5898 21.0631 37.6869 20.7891 37.881 20.5836C38.0865 20.3781 38.3662 20.2754 38.7201 20.2754C39.0854 20.2754 39.3651 20.3781 39.5592 20.5836C39.7533 20.7891 39.8503 21.0631 39.8503 21.4056C39.8503 21.7481 39.7533 22.0221 39.5592 22.2276C39.3651 22.4331 39.0854 22.5358 38.7201 22.5358Z" fill="#573AFF"/>
  <path d="M30.6484 34.2486V23.9738H32.2924V25.7206H32.7034C32.7719 25.4351 32.8918 25.1497 33.063 24.8643C33.2343 24.5789 33.5082 24.3449 33.885 24.1622C34.2617 23.9681 34.7926 23.8711 35.4776 23.8711H35.8201V25.6178H35.3063C34.2789 25.6178 33.5539 25.8861 33.1315 26.4227C32.7091 26.9478 32.4979 27.7755 32.4979 28.9057V34.2486H30.6484Z" fill="#573AFF"/>
  <path d="M22.7574 34.5053C21.8784 34.5053 21.1306 34.2827 20.5141 33.8375C19.8976 33.3922 19.4238 32.77 19.0928 31.9709C18.7731 31.1603 18.6133 30.207 18.6133 29.1111C18.6133 28.0151 18.7731 27.0675 19.0928 26.2684C19.4238 25.4578 19.8976 24.8299 20.5141 24.3847C21.142 23.9394 21.9012 23.7168 22.7917 23.7168C23.568 23.7168 24.1845 23.8823 24.6412 24.2134C25.1092 24.5331 25.4346 24.8984 25.6173 25.3094H26.0282V23.9737H27.6722V34.2484H26.0282V32.9127H25.6173C25.4346 33.3237 25.1092 33.6947 24.6412 34.0258C24.1731 34.3455 23.5452 34.5053 22.7574 34.5053ZM23.0828 32.9641C23.939 32.9641 24.6183 32.6102 25.1206 31.9024C25.623 31.1946 25.8741 30.2641 25.8741 29.1111C25.8741 27.958 25.623 27.0276 25.1206 26.3197C24.6183 25.6119 23.939 25.258 23.0828 25.258C22.2494 25.258 21.6101 25.5948 21.1649 26.2684C20.7196 26.9419 20.497 27.8895 20.497 29.1111C20.497 30.3326 20.7196 31.2802 21.1649 31.9537C21.6101 32.6273 22.2494 32.9641 23.0828 32.9641Z" fill="#573AFF"/>
  <path d="M14.518 34.2491V23.9743H16.3675V34.2491H14.518ZM15.4427 22.5358C15.0888 22.5358 14.8091 22.4331 14.6036 22.2276C14.4095 22.0221 14.3125 21.7481 14.3125 21.4056C14.3125 21.0631 14.4095 20.7891 14.6036 20.5836C14.8091 20.3781 15.0888 20.2754 15.4427 20.2754C15.8081 20.2754 16.0878 20.3781 16.2818 20.5836C16.4759 20.7891 16.573 21.0631 16.573 21.4056C16.573 21.7481 16.4759 22.0221 16.2818 22.2276C16.0878 22.4331 15.8081 22.5358 15.4427 22.5358Z" fill="#573AFF"/>
  <path d="M1.40234 34.2498V20.8926H5.76912C8.07524 20.8926 9.74204 21.4805 10.7695 22.6564C11.8084 23.8209 12.3279 25.4591 12.3279 27.5712C12.3279 29.6832 11.8084 31.3272 10.7695 32.5031C9.74204 33.6676 8.07524 34.2498 5.76912 34.2498H1.40234ZM3.33743 32.6401H5.59788C6.75094 32.6401 7.67567 32.4574 8.37207 32.0921C9.07989 31.7153 9.58792 31.1502 9.89616 30.3967C10.2158 29.6433 10.3756 28.7014 10.3756 27.5712C10.3756 26.4295 10.2158 25.4877 9.89616 24.7456C9.58792 23.9921 9.07989 23.4327 8.37207 23.0674C7.67567 22.6907 6.75094 22.5023 5.59788 22.5023H3.33743V32.6401Z" fill="#573AFF"/>
</svg>
