<svg viewBox="0 0 118 55" fill="#000f9f" color="#000f9f" xmlns="http://www.w3.org/2000/svg">
  <path d="M37.7592 51.4817H40.9648V35.2535H37.7592V42.8583C37.7592 45.5677 37.4386 47.0537 36.5358 47.9854C35.9236 48.7135 35.0198 49.093 33.8254 49.093C32.8348 49.093 32.0778 48.8303 31.5525 48.277C30.9982 47.6359 30.7076 46.4994 30.7076 44.8387V35.2535H27.5029V44.8097C27.5029 46.6452 27.5908 47.8986 28.202 49.1509C29.1048 50.9285 30.7376 51.8023 33.1264 51.8023C34.0881 51.8023 34.9329 51.5986 35.661 51.1612C36.389 50.7537 37.0601 50.0836 37.7292 49.1219L38.1376 49.4135C37.875 49.793 37.7582 50.1136 37.7582 50.6958V51.4827L37.7592 51.4817Z">
  </path>
  <path d="M111.852 34.9317C109.462 34.9317 107.889 35.8645 107.131 37.729H106.752C106.402 35.8934 104.596 34.9317 102.527 34.9317C100.634 34.9317 99.2637 35.6887 97.9524 37.5832L97.544 37.3205C97.8066 36.942 97.9225 36.6215 97.9225 36.0382V35.2513H94.7178V51.4795H97.9225V43.5252C97.9225 42.2729 98.0094 41.2522 98.2141 40.4663C98.4178 39.7093 98.7094 39.0971 99.1458 38.6597C99.7281 37.9896 100.486 37.6401 101.419 37.6401C103.283 37.6401 104.391 38.9803 104.391 41.398V51.4785H107.567V43.5242C107.567 41.0765 107.887 39.5905 108.819 38.5708C109.401 37.9597 110.159 37.6391 111.121 37.6391C112.985 37.6391 114.035 38.9204 114.035 41.397V51.4775H117.24V40.8718C117.24 37.0549 115.463 34.9277 111.85 34.9277L111.852 34.9317Z">
  </path>
  <path d="M51.0162 49.1505C48.5985 49.1505 47.1414 48.044 46.6751 46.1496H43.4414C43.9957 49.7627 46.9377 51.802 51.0162 51.802C53.0265 51.802 54.6294 51.3366 55.7649 50.4029C56.9013 49.5001 57.4835 48.2468 57.4835 46.7028C57.4835 44.4009 56.1144 43.1776 54.4536 42.5943C53.6088 42.3317 52.5312 42.0701 51.22 41.8074C49.0928 41.4 47.2283 40.9915 47.2283 39.5055C47.2283 38.3111 48.3358 37.5541 50.2003 37.5541C52.1517 37.5541 53.5798 38.4279 54.0462 40.2635H57.0471C56.4649 36.913 53.8424 34.9316 50.2003 34.9316C46.6741 34.9316 44.1105 36.6214 44.1105 39.6803C44.1105 41.8653 45.3928 43.0308 46.9946 43.584C47.7816 43.8467 48.8302 44.1083 50.1124 44.371C52.3854 44.8363 54.3078 45.2747 54.3078 46.9635C54.3078 48.3626 52.9966 49.1485 51.0152 49.1485L51.0162 49.1505Z">
  </path>
  <path d="M13.6937 44.489C13.3152 45.7423 13.1404 46.6741 13.1404 48.19H12.674C12.674 46.6751 12.4703 45.8002 12.0908 44.489L7.60485 29.2515H1.71875V51.4816H5.15713V35.2534C5.15713 34.2627 5.09921 33.1852 5.01133 32.0487L5.4777 31.9898C5.68143 33.2141 5.91511 34.2917 6.20672 35.2534L11.218 51.4816H14.5985L19.5508 35.2534C19.8714 34.1749 20.133 33.0973 20.3377 31.9898L20.8031 32.0487C20.6863 33.1852 20.6284 34.2627 20.6284 35.2534V51.4816H24.0657V29.2515H18.1806L13.6937 44.489V44.489Z">
  </path>
  <path d="M71.4407 35.8645C70.2174 35.2523 68.8762 34.9318 67.4491 34.9318C64.0696 34.9318 61.6219 36.6794 60.3985 39.2729C59.7864 40.5832 59.4668 41.9533 59.4668 43.4393C59.4668 46.5861 60.8949 49.2366 63.3416 50.6936C64.5649 51.4216 65.9641 51.8011 67.537 51.8011C69.5183 51.8011 71.1491 51.2768 72.4603 50.2272C73.7426 49.1786 74.6454 47.8085 75.1987 46.1487H71.8482C71.1781 47.8095 69.6631 49.0039 67.5939 49.0039C65.6125 49.0039 63.9817 47.7505 63.1948 45.7692C63.049 45.4776 62.9621 45.2439 62.9321 45.0991C62.7863 44.6617 62.6985 44.4869 62.3499 44.399L62.4668 43.9337C62.8752 43.9916 63.5443 44.0216 64.506 44.0216H75.4613V43.1477C75.4613 39.6225 73.8595 37.1168 71.4407 35.8635V35.8645ZM72.2277 41.9244C71.9361 41.7496 71.6734 41.6328 71.4407 41.5459C71.1781 41.458 70.8865 41.429 70.5669 41.429H64.4191C63.8369 41.429 63.4285 41.5748 62.8752 41.9244L62.6126 41.5459C62.9621 41.3412 62.9911 41.1963 63.0789 40.8758C63.1668 40.4963 63.3126 40.1757 63.4874 39.8851C64.3033 38.3991 65.7304 37.5832 67.5659 37.5832C69.3136 37.5832 70.8585 38.3991 71.6444 39.8851C71.8482 40.2636 71.994 40.6131 72.0239 40.8758C72.1118 41.1963 72.1697 41.3132 72.5183 41.5459L72.2277 41.9244V41.9244Z">
  </path>
  <path d="M88.2513 42.8575C88.2513 45.5668 87.9308 47.0528 87.028 47.9846C86.4158 48.7126 85.513 49.0921 84.3176 49.0921C83.327 49.0921 82.57 48.8295 82.0457 48.2762C81.4914 47.6351 81.2008 46.4986 81.2008 44.8378V35.2527H77.9951V44.8089C77.9951 46.6444 78.083 47.8977 78.6942 49.15C79.598 50.9276 81.2298 51.8015 83.6186 51.8015C84.5793 51.8015 85.4241 51.5977 86.1532 51.1603C86.8812 50.7529 87.5523 50.0828 88.2214 49.1211L88.6298 49.4127C88.3682 49.7922 88.2513 50.1127 88.2513 50.6949V51.4819H91.456V35.2537H88.2513V42.8585V42.8575Z">
  </path>
  <path d="M73.5084 20.0151C71.0897 20.0151 69.6336 18.9076 69.1672 17.0141H65.9336C66.4878 20.6272 69.4299 22.6665 73.5084 22.6665C75.5187 22.6665 77.1216 22.2011 78.257 21.2674C79.3935 20.3646 79.9757 19.1113 79.9757 17.5674C79.9757 15.2654 78.6066 14.0421 76.9458 13.4589C76.1009 13.1962 75.0234 12.9346 73.7121 12.6719C71.585 12.2635 69.7205 11.856 69.7205 10.37C69.7205 9.17563 70.828 8.41764 72.6915 8.41764C74.6439 8.41764 76.072 9.29147 76.5384 11.127H79.5393C78.9571 7.7765 76.3346 5.79517 72.6915 5.79517C69.1663 5.79517 66.6027 7.48589 66.6027 10.5448C66.6027 12.7299 67.885 13.8953 69.4868 14.4485C70.2738 14.7112 71.3224 14.9738 72.6046 15.2355C74.8776 15.7009 76.8 16.1383 76.8 17.828C76.8 19.2261 75.4888 20.0131 73.5074 20.0131L73.5084 20.0151Z">
  </path>
  <path d="M51.511 21.5879C52.5885 22.3159 53.8419 22.6655 55.2689 22.6655C56.3764 22.6655 57.3082 22.4617 58.0662 22.0543C58.7942 21.6458 59.5222 20.9468 60.2223 19.9861L60.6307 20.2767C60.3102 20.6562 60.2223 20.9767 60.2223 21.5589V22.3449H63.427V0.114746H60.2223V6.90363C60.2223 7.39896 60.3681 7.83538 60.6307 8.18591L60.2223 8.44855C58.8232 6.5551 57.484 5.79712 55.2689 5.79712C52.4427 5.79712 50.1698 7.28312 49.0043 9.84668C48.3932 11.129 48.1016 12.585 48.1016 14.2468C48.1016 17.5094 49.3249 20.1898 51.511 21.5889V21.5879ZM55.8522 8.59336C57.6298 8.59336 59.1148 9.58403 59.9307 11.3027C60.3102 12.1765 60.5129 13.1672 60.5129 14.2458C60.5129 16.4308 59.668 18.2084 58.2689 19.1402C57.5409 19.6355 56.7539 19.8682 55.8512 19.8682C54.482 19.8682 53.3755 19.3429 52.5586 18.2943C51.7137 17.2457 51.3053 15.9045 51.3053 14.2448C51.3053 10.9522 53.0829 8.59236 55.8502 8.59236L55.8522 8.59336Z">
  </path>
  <path d="M15.5294 21.588C16.7538 22.316 18.1509 22.6655 19.7248 22.6655C21.3276 22.6655 22.7257 22.287 23.9791 21.559C26.4268 20.1309 27.8538 17.4216 27.8538 14.1579C27.8538 10.9243 26.3968 8.3018 23.9501 6.87372C22.6968 6.1457 21.2986 5.79517 19.7248 5.79517C16.578 5.79517 14.0144 7.31113 12.6453 9.84473C11.9462 11.098 11.5967 12.5551 11.5967 14.1569C11.5967 17.4495 13.0527 20.1589 15.5294 21.587V21.588Z">
  </path>
  <path d="M33.7384 21.588C34.9627 22.316 36.3609 22.6655 37.9347 22.6655C39.5366 22.6655 40.9357 22.287 42.188 21.559C44.6357 20.1309 46.0628 17.4216 46.0628 14.1579C46.0628 10.9243 44.6068 8.3018 42.1591 6.87372C40.9058 6.1457 39.5076 5.79517 37.9347 5.79517C34.788 5.79517 32.2234 7.31113 30.8543 9.84473C30.1552 11.098 29.8057 12.5551 29.8057 14.1569C29.8057 17.4495 31.2617 20.1589 33.7384 21.587V21.588Z">
  </path>
  <path d="M6.43835 21.7337C8.18601 20.9468 8.88607 19.3739 8.88607 16.6935V0.114746H5.41972V16.6356C5.41972 18.4711 4.54589 19.258 2.79724 19.258H0V22.3459H2.79724C4.34217 22.3459 5.53557 22.1422 6.43935 21.7347L6.43835 21.7337Z">
  </path>
</svg>
